<svg width="50" height="50" viewBox="0 0 50 50" fill="none" xmlns="http://www.w3.org/2000/svg">
<rect width="50" height="50" rx="10" fill="#F5F5F5"/>
<path d="M39.2961 20.3125H35.7881L34.8131 17.875C33.8111 15.3689 31.4199 13.75 28.7205 13.75H21.2791C18.5803 13.75 16.1885 15.3689 15.1859 17.875L14.2109 20.3125H10.7035C10.2459 20.3125 9.91014 20.7426 10.0215 21.1861L10.373 22.5924C10.451 22.9053 10.7322 23.125 11.0551 23.125H12.231C11.4441 23.8123 10.9373 24.8113 10.9373 25.9375V28.75C10.9373 29.6946 11.2982 30.5471 11.8748 31.2069V34.375C11.8748 35.4104 12.7144 36.25 13.7498 36.25H15.6248C16.6601 36.25 17.4998 35.4104 17.4998 34.375V32.5H32.4998V34.375C32.4998 35.4104 33.3395 36.25 34.3748 36.25H36.2498C37.2852 36.25 38.1248 35.4104 38.1248 34.375V31.2069C38.7014 30.5477 39.0623 29.6951 39.0623 28.75V25.9375C39.0623 24.8113 38.5555 23.8123 37.7692 23.125H38.9451C39.268 23.125 39.5492 22.9053 39.6272 22.5924L39.9787 21.1861C40.0895 20.7426 39.7537 20.3125 39.2961 20.3125ZM18.6676 19.2678C19.0947 18.2002 20.1289 17.5 21.2791 17.5H28.7205C29.8707 17.5 30.9049 18.2002 31.332 19.2678L32.4998 22.1875H17.4998L18.6676 19.2678ZM15.6248 28.7383C14.4998 28.7383 13.7498 27.9906 13.7498 26.8692C13.7498 25.7477 14.4998 25 15.6248 25C16.7498 25 18.4373 26.6822 18.4373 27.8037C18.4373 28.9252 16.7498 28.7383 15.6248 28.7383ZM34.3748 28.7383C33.2498 28.7383 31.5623 28.9252 31.5623 27.8037C31.5623 26.6822 33.2498 25 34.3748 25C35.4998 25 36.2498 25.7477 36.2498 26.8692C36.2498 27.9906 35.4998 28.7383 34.3748 28.7383Z" fill="#141414"/>
</svg>
