<svg width="50" height="50" viewBox="0 0 50 50" fill="none" xmlns="http://www.w3.org/2000/svg">
<rect width="50" height="50" rx="10" fill="#F5F5F5"/>
<path d="M37.4219 38.125H36.25V11.4062C36.25 10.6296 35.6204 10 34.8438 10H15.1562C14.3796 10 13.75 10.6296 13.75 11.4062V38.125H12.5781C12.1898 38.125 11.875 38.4398 11.875 38.8281V40H38.125V38.8281C38.125 38.4398 37.8102 38.125 37.4219 38.125ZM19.375 14.4531C19.375 14.0648 19.6898 13.75 20.0781 13.75H22.4219C22.8102 13.75 23.125 14.0648 23.125 14.4531V16.7969C23.125 17.1852 22.8102 17.5 22.4219 17.5H20.0781C19.6898 17.5 19.375 17.1852 19.375 16.7969V14.4531ZM19.375 20.0781C19.375 19.6898 19.6898 19.375 20.0781 19.375H22.4219C22.8102 19.375 23.125 19.6898 23.125 20.0781V22.4219C23.125 22.8102 22.8102 23.125 22.4219 23.125H20.0781C19.6898 23.125 19.375 22.8102 19.375 22.4219V20.0781ZM22.4219 28.75H20.0781C19.6898 28.75 19.375 28.4352 19.375 28.0469V25.7031C19.375 25.3148 19.6898 25 20.0781 25H22.4219C22.8102 25 23.125 25.3148 23.125 25.7031V28.0469C23.125 28.4352 22.8102 28.75 22.4219 28.75ZM26.875 38.125H23.125V33.2031C23.125 32.8148 23.4398 32.5 23.8281 32.5H26.1719C26.5602 32.5 26.875 32.8148 26.875 33.2031V38.125ZM30.625 28.0469C30.625 28.4352 30.3102 28.75 29.9219 28.75H27.5781C27.1898 28.75 26.875 28.4352 26.875 28.0469V25.7031C26.875 25.3148 27.1898 25 27.5781 25H29.9219C30.3102 25 30.625 25.3148 30.625 25.7031V28.0469ZM30.625 22.4219C30.625 22.8102 30.3102 23.125 29.9219 23.125H27.5781C27.1898 23.125 26.875 22.8102 26.875 22.4219V20.0781C26.875 19.6898 27.1898 19.375 27.5781 19.375H29.9219C30.3102 19.375 30.625 19.6898 30.625 20.0781V22.4219ZM30.625 16.7969C30.625 17.1852 30.3102 17.5 29.9219 17.5H27.5781C27.1898 17.5 26.875 17.1852 26.875 16.7969V14.4531C26.875 14.0648 27.1898 13.75 27.5781 13.75H29.9219C30.3102 13.75 30.625 14.0648 30.625 14.4531V16.7969Z" fill="#141414"/>
</svg>
