<svg width="50" height="50" viewBox="0 0 50 50" fill="none" xmlns="http://www.w3.org/2000/svg">
<rect x="0.5" y="0.5" width="49" height="49" rx="9.5" fill="#F5F5F5"/>
<rect x="0.5" y="0.5" width="49" height="49" rx="9.5" stroke="#F5F5F5"/>
<path d="M35 21.6665H29.0473L23.5734 12.0863C23.5004 11.9587 23.395 11.8527 23.2678 11.779C23.1407 11.7053 22.9964 11.6665 22.8494 11.6665H19.4379C18.8843 11.6665 18.4848 12.1962 18.6369 12.7285L21.1905 21.6665H15.8332L13.5832 18.6665C13.4259 18.4566 13.1785 18.3332 12.9165 18.3332H10.8337C10.2915 18.3332 9.89361 18.8426 10.0254 19.3686L11.6665 24.9999L10.0254 30.6312C9.89361 31.1572 10.2915 31.6666 10.8337 31.6666H12.9165C13.179 31.6666 13.4259 31.5432 13.5832 31.3333L15.8332 28.3332H21.1905L18.6369 37.2708C18.4848 37.8031 18.8843 38.3333 19.4379 38.3333H22.8494C23.1484 38.3333 23.4244 38.1729 23.5728 37.9135L29.0473 28.3332H35C36.8411 28.3332 40 26.8411 40 24.9999C40 23.1587 36.8411 21.6665 35 21.6665Z" fill="#141414"/>
</svg>
