<svg width="50" height="50" viewBox="0 0 50 50" fill="none" xmlns="http://www.w3.org/2000/svg">
<rect x="0.5" y="0.5" width="49" height="49" rx="9.5" stroke="#F5F5F5"/>
<path d="M38.125 15.625V30.625C38.125 33.661 34.5142 36.25 30.5065 36.25L34.1968 39.1633C34.5452 39.4385 34.3493 40 33.9062 40H16.0938C15.6497 40 15.4555 39.4379 15.8033 39.1633L19.4935 36.25C15.4973 36.25 11.875 33.6692 11.875 30.625V15.625C11.875 12.5184 15.625 10 19.375 10H30.625C34.4336 10 38.125 12.5184 38.125 15.625ZM23.5938 23.5938V17.0312C23.5938 16.2546 22.9642 15.625 22.1875 15.625H16.0938C15.3171 15.625 14.6875 16.2546 14.6875 17.0312V23.5938C14.6875 24.3704 15.3171 25 16.0938 25H22.1875C22.9642 25 23.5938 24.3704 23.5938 23.5938ZM35.3125 23.5938V17.0312C35.3125 16.2546 34.6829 15.625 33.9062 15.625H27.8125C27.0358 15.625 26.4062 16.2546 26.4062 17.0312V23.5938C26.4062 24.3704 27.0358 25 27.8125 25H33.9062C34.6829 25 35.3125 24.3704 35.3125 23.5938ZM32.5 26.875C30.9467 26.875 29.6875 28.1342 29.6875 29.6875C29.6875 31.2408 30.9467 32.5 32.5 32.5C34.0533 32.5 35.3125 31.2408 35.3125 29.6875C35.3125 28.1342 34.0533 26.875 32.5 26.875ZM17.5 26.875C15.9467 26.875 14.6875 28.1342 14.6875 29.6875C14.6875 31.2408 15.9467 32.5 17.5 32.5C19.0533 32.5 20.3125 31.2408 20.3125 29.6875C20.3125 28.1342 19.0533 26.875 17.5 26.875Z" fill="#F5F5F5"/>
</svg>
