<svg width="30" height="30" viewBox="0 0 30 30" fill="none" xmlns="http://www.w3.org/2000/svg">
<circle cx="15" cy="15" r="15" fill="#96172C"/>
<g clip-path="url(#clip0_71_127)">
<path d="M21.9205 18.4497C21.9023 18.4105 21.8854 18.3781 21.8697 18.352C21.6094 17.8833 21.1121 17.308 20.378 16.6259L20.3625 16.6103L20.3547 16.6027L20.3468 16.5948H20.339C20.0058 16.2772 19.7948 16.0636 19.7064 15.9543C19.5448 15.746 19.5086 15.5352 19.5969 15.3216C19.6593 15.1602 19.8938 14.8194 20.2998 14.2986C20.5134 14.0226 20.6825 13.8015 20.8074 13.6348C21.7082 12.4372 22.0988 11.672 21.9789 11.3387L21.9324 11.2608C21.9011 11.2139 21.8204 11.1711 21.6904 11.1319C21.5601 11.0929 21.3936 11.0864 21.1904 11.1125L18.9413 11.128C18.9048 11.1151 18.8528 11.1163 18.785 11.1319C18.7173 11.1476 18.6834 11.1554 18.6834 11.1554L18.6443 11.175L18.6132 11.1985C18.5872 11.214 18.5585 11.2414 18.5273 11.2804C18.4962 11.3193 18.4702 11.365 18.4494 11.4171C18.2045 12.0471 17.9261 12.6328 17.6136 13.1743C17.421 13.4971 17.244 13.7769 17.0824 14.0139C16.9211 14.2507 16.7857 14.4252 16.6765 14.537C16.567 14.649 16.4683 14.7387 16.3796 14.8065C16.2911 14.8742 16.2235 14.9029 16.1767 14.8924C16.1297 14.8819 16.0856 14.8715 16.0437 14.8611C15.9709 14.8142 15.9123 14.7505 15.8681 14.6698C15.8238 14.5891 15.7939 14.4875 15.7783 14.3652C15.7627 14.2427 15.7535 14.1374 15.7509 14.0489C15.7485 13.9604 15.7496 13.8353 15.7549 13.674C15.7603 13.5125 15.7627 13.4032 15.7627 13.3459C15.7627 13.1481 15.7666 12.9333 15.7743 12.7016C15.7822 12.4699 15.7886 12.2863 15.7939 12.1511C15.7992 12.0157 15.8017 11.8725 15.8017 11.7215C15.8017 11.5705 15.7925 11.4521 15.7743 11.3661C15.7564 11.2803 15.7288 11.197 15.6925 11.1162C15.656 11.0355 15.6026 10.9731 15.5324 10.9288C15.4622 10.8845 15.3748 10.8494 15.2708 10.8233C14.9948 10.7608 14.6434 10.7271 14.2164 10.7218C13.248 10.7114 12.6258 10.774 12.3498 10.9093C12.2405 10.9665 12.1416 11.0447 12.0531 11.1435C11.9594 11.2581 11.9463 11.3207 12.014 11.3309C12.3264 11.3777 12.5476 11.4897 12.6778 11.6667L12.7247 11.7605C12.7612 11.8282 12.7976 11.948 12.8341 12.1198C12.8705 12.2916 12.894 12.4816 12.9043 12.6898C12.9303 13.0699 12.9303 13.3953 12.9043 13.666C12.8782 13.9368 12.8536 14.1477 12.8301 14.2986C12.8066 14.4496 12.7715 14.572 12.7247 14.6657C12.6778 14.7594 12.6465 14.8167 12.6309 14.8375C12.6153 14.8583 12.6023 14.8714 12.5919 14.8765C12.5242 14.9024 12.4539 14.9157 12.381 14.9157C12.3081 14.9157 12.2196 14.8792 12.1155 14.8062C12.0114 14.7333 11.9034 14.6331 11.7914 14.5056C11.6795 14.3779 11.5532 14.1996 11.4126 13.9706C11.272 13.7415 11.1262 13.4708 10.9753 13.1584L10.8503 12.9318C10.7722 12.7861 10.6655 12.5739 10.5302 12.2954C10.3947 12.0168 10.275 11.7473 10.1709 11.4869C10.1293 11.3776 10.0668 11.2944 9.98349 11.2371L9.9444 11.2136C9.91841 11.1928 9.8767 11.1707 9.81947 11.1472C9.76216 11.1237 9.70237 11.1069 9.63984 11.0965L7.49993 11.112C7.28126 11.112 7.13289 11.1616 7.05476 11.2605L7.0235 11.3073C7.00788 11.3334 7 11.375 7 11.4323C7 11.4896 7.01562 11.5599 7.04689 11.6431C7.35927 12.3773 7.69899 13.0854 8.06603 13.7675C8.43307 14.4495 8.75202 14.9989 9.02269 15.4152C9.29342 15.8318 9.56937 16.2249 9.85055 16.5945C10.1317 16.9642 10.3178 17.2011 10.4089 17.3052C10.5001 17.4095 10.5717 17.4874 10.6237 17.5395L10.819 17.7269C10.944 17.8519 11.1275 18.0016 11.3696 18.1759C11.6118 18.3504 11.8799 18.5222 12.174 18.6916C12.4683 18.8606 12.8105 18.9986 13.2011 19.1053C13.5916 19.2122 13.9716 19.255 14.3413 19.2343H15.2395C15.4216 19.2186 15.5596 19.1613 15.6534 19.0625L15.6845 19.0233C15.7054 18.9923 15.725 18.944 15.743 18.879C15.7613 18.8139 15.7704 18.7422 15.7704 18.6642C15.765 18.4404 15.7821 18.2387 15.821 18.0591C15.86 17.8795 15.9043 17.7441 15.9539 17.653C16.0035 17.5619 16.0595 17.485 16.1218 17.4227C16.1842 17.3602 16.2287 17.3224 16.2548 17.3094C16.2807 17.2963 16.3014 17.2874 16.317 17.2821C16.442 17.2404 16.5891 17.2807 16.7584 17.4032C16.9277 17.5256 17.0864 17.6766 17.2349 17.8562C17.3833 18.0359 17.5616 18.2375 17.7698 18.4614C17.9782 18.6853 18.1603 18.8518 18.3165 18.9613L18.4726 19.055C18.5769 19.1175 18.7123 19.1748 18.8789 19.2268C19.0453 19.2789 19.191 19.2919 19.3162 19.2659L21.3154 19.2347C21.5131 19.2347 21.667 19.202 21.7762 19.137C21.8855 19.0719 21.9505 19.0002 21.9714 18.9222C21.9923 18.8442 21.9935 18.7556 21.9754 18.6566C21.9569 18.5578 21.9386 18.4887 21.9205 18.4497Z" fill="#F5F5F5"/>
</g>
<defs>
<clipPath id="clip0_71_127">
<rect width="15" height="15" fill="white" transform="translate(7 7.5)"/>
</clipPath>
</defs>
</svg>
