<svg width="30" height="30" viewBox="0 0 30 30" fill="none" xmlns="http://www.w3.org/2000/svg">
<circle cx="15" cy="15" r="15" fill="#96172C"/>
<g clip-path="url(#clip0_71_120)">
<path d="M11 12.8883C10.999 13.6242 11.1408 14.3531 11.4173 15.0333C11.6938 15.7136 12.0996 16.3319 12.6116 16.853C13.1236 17.3741 13.7317 17.7878 14.4012 18.0704C15.0707 18.353 15.7885 18.4989 16.5136 18.5H16.6919C17.0456 18.4824 17.379 18.327 17.6226 18.0663C17.8663 17.8055 18.0014 17.4595 18 17.1001C18.0001 17.0097 17.9922 16.9195 17.9762 16.8306C17.9564 16.7402 17.9299 16.6514 17.8969 16.5651L15.5742 16.191C15.4046 16.3933 15.2947 16.6401 15.2571 16.903C14.6446 16.7039 14.0862 16.3629 13.6259 15.9069C13.1657 15.451 12.8163 14.8927 12.6053 14.2761C12.8672 14.2357 13.112 14.1198 13.3109 13.9423L12.9145 11.6051C12.8122 11.5577 12.7043 11.5239 12.5934 11.5045C12.5182 11.4985 12.4427 11.4985 12.3675 11.5045C12.0065 11.5076 11.661 11.6543 11.4053 11.913C11.1497 12.1718 11.0041 12.5219 11 12.8883Z" fill="#F5F5F5"/>
<path d="M7.82572 22.4969C7.695 22.4962 7.56629 22.4645 7.45008 22.4044C7.33387 22.3443 7.23344 22.2576 7.15696 22.1512C7.08047 22.0449 7.0301 21.9219 7.00994 21.7924C6.98977 21.6628 7.00039 21.5303 7.04092 21.4056L7.96275 18.5857C7.11678 17.0287 6.84832 15.2213 7.20507 13.4845C7.56182 11.7478 8.52068 10.194 9.91134 9.09933C11.302 8.00461 13.0345 7.43976 14.801 7.50509C16.5676 7.57043 18.2539 8.26171 19.5604 9.45618C20.8669 10.6506 21.7091 12.271 21.9374 14.0294C22.1657 15.7878 21.7653 17.5704 20.8073 19.0607C19.8493 20.551 18.3958 21.6524 16.7048 22.1695C15.0139 22.6865 13.195 22.5855 11.5712 21.8846L7.96275 22.4969C7.91717 22.501 7.87131 22.501 7.82572 22.4969ZM11.6792 20.1852C11.8029 20.1859 11.9249 20.2144 12.0363 20.2685C13.2991 20.8673 14.7348 20.99 16.0804 20.6141C17.4261 20.2382 18.5918 19.3889 19.3643 18.2214C20.1369 17.054 20.4645 15.6465 20.2873 14.2566C20.1101 12.8668 19.4399 11.5873 18.3993 10.6525C17.3588 9.71766 16.0175 9.18991 14.6208 9.16583C13.2241 9.14174 11.8655 9.62293 10.7935 10.5213C9.72158 11.4197 9.00794 12.6753 8.78321 14.0583C8.55848 15.4412 8.83768 16.8591 9.56974 18.0525C9.63311 18.1554 9.67336 18.271 9.6877 18.3911C9.70204 18.5113 9.69013 18.6331 9.65279 18.7481L9.04238 20.6142L11.5338 20.1976L11.6792 20.1852Z" fill="#F5F5F5"/>
</g>
<defs>
<clipPath id="clip0_71_120">
<rect width="15" height="15" fill="white" transform="translate(7 7.5)"/>
</clipPath>
</defs>
</svg>
