<svg width="59" height="104" viewBox="0 0 59 104" fill="none" xmlns="http://www.w3.org/2000/svg">
<path d="M59 21.2175C59 6.9401 49.6785 0 30.5 0C11.3215 0 2 6.9401 2 21.2175C2 37.6368 28.8165 56.5793 29.9565 57.376C29.9565 57.376 29.9626 57.376 29.9666 57.3783C29.989 57.3941 30.0135 57.3941 30.0379 57.4076C30.1845 57.4934 30.3392 57.5521 30.5 57.5521C30.6608 57.5521 30.8155 57.4934 30.9621 57.4099C30.9845 57.3964 31.011 57.3964 31.0334 57.3806C31.0334 57.3806 31.0395 57.3806 31.0435 57.3783C32.1835 56.5793 59 37.6391 59 21.2175ZM38.6429 21.2175C38.6429 33.7661 32.7881 48.574 30.5 53.8823C28.2119 48.5762 22.3571 33.7752 22.3571 21.2175C22.3571 4.22274 27.0047 2.25694 30.5 2.25694C33.9953 2.25694 38.6429 4.22274 38.6429 21.2175ZM20.3214 21.2175C20.3214 32.0441 24.3501 44.1052 27.1024 51.0905C21.5205 44.5521 12.1786 32.0057 12.1786 21.2175C12.1786 10.6325 16.0831 4.6809 24.346 2.86406C21.6508 6.13212 20.3214 12.2123 20.3214 21.2175ZM40.6786 21.2175C40.6786 12.2123 39.3513 6.13212 36.654 2.86406C44.9169 4.6809 48.8214 10.6347 48.8214 21.2175C48.8214 32.0057 39.4795 44.5498 33.8976 51.0905C36.6499 44.1075 40.6786 32.0441 40.6786 21.2175ZM4.03571 21.2175C4.03571 12.2552 8.08068 6.6151 16.5676 3.99254C12.2641 7.45017 10.1429 13.1648 10.1429 21.2175C10.1429 30.7035 16.5248 41.0606 22.0274 48.2399C14.1736 41.3156 4.03571 30.5681 4.03571 21.2175ZM38.9726 48.2399C44.4752 41.0606 50.8571 30.7057 50.8571 21.2175C50.8571 13.1648 48.7359 7.44792 44.4324 3.99254C52.9193 6.6151 56.9643 12.2552 56.9643 21.2175C56.9643 30.5681 46.8264 41.3156 38.9726 48.2399Z" fill="#96172C"/>
<path d="M25.4107 60.9375C24.8488 60.9375 24.3928 61.4431 24.3928 62.066V68.8368C24.3928 70.7349 25.7344 72.2222 27.4464 72.2222H33.5535C35.2656 72.2222 36.6071 70.7349 36.6071 68.8368V62.066C36.6071 61.4431 36.1511 60.9375 35.5893 60.9375H25.4107ZM34.5714 68.8368C34.5714 69.5003 34.1521 69.9653 33.5535 69.9653H27.4464C26.8479 69.9653 26.4286 69.5003 26.4286 68.8368V63.1944H34.5714V68.8368Z" fill="#96172C"/>
<path d="M5.28 93.0622C5.08 93.0622 4.80667 92.9888 4.46 92.8422C4.11333 92.6822 3.76 92.4822 3.4 92.2422C3.04 91.9888 2.73333 91.7288 2.48 91.4622C2.22667 91.1822 2.1 90.9155 2.1 90.6622C2.1 90.5155 2.10667 90.3622 2.12 90.2022C2.13333 90.0422 2.15333 89.8355 2.18 89.5822C2.20667 89.3155 2.22667 88.9622 2.24 88.5222C2.25333 88.0822 2.26 87.5088 2.26 86.8022C2.26 86.5355 2.26 86.2555 2.26 85.9622C2.26 85.6688 2.25333 85.3622 2.24 85.0422H1.88L0.86 83.7022L1 83.3822C1.70667 83.3022 2.15333 83.0888 2.34 82.7422C2.52667 82.3955 2.62 81.8688 2.62 81.1622L2.96 81.0422L4.18 81.9622C4.18 82.2022 4.18 82.4355 4.18 82.6622C4.18 82.8888 4.18 83.1155 4.18 83.3422H5.88L6.88 84.7422L6.74 85.0422H4.2C4.2 85.5222 4.2 85.9822 4.2 86.4222C4.2 86.8622 4.2 87.2822 4.2 87.6822C4.2 88.4555 4.18667 89.0488 4.16 89.4622C4.14667 89.8755 4.12667 90.1822 4.1 90.3822C4.07333 90.5822 4.06 90.7688 4.06 90.9422C4.06 91.2088 4.2 91.3422 4.48 91.3422C4.72 91.3422 4.98 91.2822 5.26 91.1622C5.54 91.0288 5.8 90.8688 6.04 90.6822H6.32L7.26 92.2422C7.07333 92.4688 6.78 92.6622 6.38 92.8222C5.98 92.9822 5.61333 93.0622 5.28 93.0622ZM11.9114 93.1222C11.5914 93.1222 11.2047 93.0422 10.7514 92.8822C10.2981 92.7222 9.85807 92.5088 9.43141 92.2422C9.00474 91.9755 8.64474 91.6688 8.35141 91.3222C8.07141 90.9755 7.93141 90.6222 7.93141 90.2622C7.93141 90.1022 7.95141 89.6355 7.99141 88.8622C8.04474 88.0888 8.07141 87.1222 8.07141 85.9622C8.07141 85.0288 8.34474 84.3422 8.89141 83.9022C9.43807 83.4622 10.2581 83.2422 11.3514 83.2422C11.6714 83.2422 12.0247 83.3422 12.4114 83.5422C12.8114 83.7422 13.1914 84.0022 13.5514 84.3222C13.9114 84.6422 14.2047 84.9822 14.4314 85.3422C14.6714 85.6888 14.7914 86.0155 14.7914 86.3222C14.7914 86.8288 14.7781 87.3755 14.7514 87.9622C14.7381 88.5488 14.7314 89.3022 14.7314 90.2222C14.7314 91.0755 14.4981 91.7755 14.0314 92.3222C13.5647 92.8555 12.8581 93.1222 11.9114 93.1222ZM10.6314 91.4222C11.3647 91.4222 11.8981 91.2688 12.2314 90.9622C12.5781 90.6555 12.7514 90.2022 12.7514 89.6022C12.7514 89.1755 12.7581 88.6955 12.7714 88.1622C12.7847 87.6155 12.7981 87.1155 12.8114 86.6622C12.8247 86.1955 12.8314 85.8688 12.8314 85.6822C12.8314 85.4555 12.7914 85.2888 12.7114 85.1822C12.6314 85.0622 12.4714 85.0022 12.2314 85.0022C11.5114 85.0022 10.9581 85.1288 10.5714 85.3822C10.1981 85.6222 10.0114 86.0822 10.0114 86.7622C10.0114 88.0422 9.99807 89.0088 9.97141 89.6622C9.94474 90.3022 9.93141 90.7355 9.93141 90.9622C9.93141 91.2688 10.1647 91.4222 10.6314 91.4222ZM22.4089 93.0622C22.2089 93.0622 21.9356 92.9888 21.5889 92.8422C21.2422 92.6822 20.8889 92.4822 20.5289 92.2422C20.1689 91.9888 19.8622 91.7288 19.6089 91.4622C19.3556 91.1822 19.2289 90.9155 19.2289 90.6622C19.2289 90.5155 19.2356 90.3622 19.2489 90.2022C19.2622 90.0422 19.2822 89.8355 19.3089 89.5822C19.3356 89.3155 19.3556 88.9622 19.3689 88.5222C19.3822 88.0822 19.3889 87.5088 19.3889 86.8022C19.3889 86.5355 19.3889 86.2555 19.3889 85.9622C19.3889 85.6688 19.3822 85.3622 19.3689 85.0422H19.0089L17.9889 83.7022L18.1289 83.3822C18.8356 83.3022 19.2822 83.0888 19.4689 82.7422C19.6556 82.3955 19.7489 81.8688 19.7489 81.1622L20.0889 81.0422L21.3089 81.9622C21.3089 82.2022 21.3089 82.4355 21.3089 82.6622C21.3089 82.8888 21.3089 83.1155 21.3089 83.3422H23.0089L24.0089 84.7422L23.8689 85.0422H21.3289C21.3289 85.5222 21.3289 85.9822 21.3289 86.4222C21.3289 86.8622 21.3289 87.2822 21.3289 87.6822C21.3289 88.4555 21.3156 89.0488 21.2889 89.4622C21.2756 89.8755 21.2556 90.1822 21.2289 90.3822C21.2022 90.5822 21.1889 90.7688 21.1889 90.9422C21.1889 91.2088 21.3289 91.3422 21.6089 91.3422C21.8489 91.3422 22.1089 91.2822 22.3889 91.1622C22.6689 91.0288 22.9289 90.8688 23.1689 90.6822H23.4489L24.3889 92.2422C24.2022 92.4688 23.9089 92.6622 23.5089 92.8222C23.1089 92.9822 22.7422 93.0622 22.4089 93.0622ZM28.7403 93.4022C27.5936 93.0288 26.767 92.7088 26.2603 92.4422C25.7536 92.1622 25.5003 91.9622 25.5003 91.8422C25.5003 91.6955 25.5203 91.4422 25.5603 91.0822C25.6136 90.7222 25.6403 90.1622 25.6403 89.4022V86.9222C25.6403 86.6555 25.6536 86.3422 25.6803 85.9822C25.707 85.6088 25.747 85.2955 25.8003 85.0422H25.0603L24.0203 83.6622L24.1603 83.3422H26.0403C26.107 83.3422 26.227 83.4422 26.4003 83.6422C26.587 83.8288 26.7736 84.0355 26.9603 84.2622C27.1736 83.9155 27.467 83.6622 27.8403 83.5022C28.227 83.3422 28.6336 83.2622 29.0603 83.2622C29.2736 83.2622 29.4336 83.2755 29.5403 83.3022L30.5403 84.7022L30.3803 84.9422C29.447 84.9288 28.7536 85.1088 28.3003 85.4822C27.847 85.8555 27.6203 86.5422 27.6203 87.5422V89.6822C27.6203 90.3488 27.6003 90.8688 27.5603 91.2422C27.5336 91.6022 27.5203 91.8422 27.5203 91.9622C27.5203 92.0422 27.547 92.1155 27.6003 92.1822C27.6536 92.2355 27.7803 92.3022 27.9803 92.3822C28.1936 92.4622 28.527 92.5955 28.9803 92.7822L28.7403 93.4022ZM37.9225 93.1222C37.6025 93.0155 37.3092 92.9088 37.0425 92.8022C36.7758 92.6822 36.5225 92.5555 36.2825 92.4222C36.0958 92.6088 35.8692 92.7622 35.6025 92.8822C35.3492 92.9888 35.0558 93.0422 34.7225 93.0422C34.4958 93.0422 34.1625 92.9688 33.7225 92.8222C33.2958 92.6755 32.8558 92.4888 32.4025 92.2622C31.9492 92.0222 31.5625 91.7622 31.2425 91.4822C30.9358 91.1888 30.7825 90.9022 30.7825 90.6222C30.7825 90.2755 30.7825 89.9688 30.7825 89.7022C30.7958 89.4222 30.8025 89.2555 30.8025 89.2022C30.8025 88.4155 31.0025 87.8622 31.4025 87.5422C31.8158 87.2088 32.3892 87.0422 33.1225 87.0422C33.4958 87.0422 33.8958 87.0688 34.3225 87.1222C34.7492 87.1755 35.0958 87.2355 35.3625 87.3022C35.3758 86.9288 35.3825 86.5755 35.3825 86.2422C35.3958 85.8955 35.4025 85.6355 35.4025 85.4622C35.4025 85.3155 35.3625 85.2088 35.2825 85.1422C35.2025 85.0755 35.0558 85.0422 34.8425 85.0422C34.3225 85.0422 33.8825 85.0822 33.5225 85.1622C33.1625 85.2422 32.8225 85.3755 32.5025 85.5622H32.1225L30.8225 83.6622L30.9825 83.3422H34.3225C34.5892 83.3422 34.8892 83.4488 35.2225 83.6622C35.5692 83.8622 35.9092 84.1155 36.2425 84.4222C36.5758 84.7288 36.8492 85.0422 37.0625 85.3622C37.2758 85.6822 37.3825 85.9622 37.3825 86.2022C37.3825 86.6422 37.3692 87.1622 37.3425 87.7622C37.3158 88.3622 37.2892 88.9755 37.2625 89.6022C37.2358 90.2155 37.2225 90.7755 37.2225 91.2822C37.2225 91.6822 37.2892 91.9622 37.4225 92.1222C37.5558 92.2688 37.8092 92.4155 38.1825 92.5622L37.9225 93.1222ZM32.7625 90.6222C32.7625 90.9555 32.8225 91.1688 32.9425 91.2622C33.0625 91.3422 33.2092 91.3822 33.3825 91.3822C33.9292 91.3822 34.3825 91.2422 34.7425 90.9622C35.1158 90.6688 35.3025 90.2155 35.3025 89.6022C35.3025 89.4822 35.3025 89.3355 35.3025 89.1622C35.3158 88.9888 35.3225 88.7955 35.3225 88.5822C35.1758 88.5422 34.9958 88.5155 34.7825 88.5022C34.5692 88.4888 34.3758 88.4822 34.2025 88.4822C33.7225 88.4822 33.3625 88.5888 33.1225 88.8022C32.8825 89.0155 32.7625 89.3888 32.7625 89.9222V90.6222ZM42.8642 93.2622C42.7176 93.2622 42.5042 93.1688 42.2242 92.9822C41.9576 92.7822 41.6776 92.5422 41.3842 92.2622C41.0909 91.9822 40.8309 91.7222 40.6042 91.4822C40.3909 91.2288 40.2709 91.0422 40.2442 90.9222C39.9509 89.7355 39.7109 88.7888 39.5242 88.0822C39.3376 87.3622 39.1976 86.8088 39.1042 86.4222C39.0242 86.0222 38.9842 85.7155 38.9842 85.5022C38.9842 85.3422 39.0042 85.1888 39.0442 85.0422H38.5842L37.6042 83.6622L37.7642 83.3422H40.3042L41.2242 84.6822V84.9422C40.9309 84.9955 40.7309 85.1088 40.6242 85.2822C40.5176 85.4555 40.4642 85.6755 40.4642 85.9422C40.4642 86.0888 40.4976 86.3288 40.5642 86.6622C40.6309 86.9822 40.7576 87.4955 40.9442 88.2022C41.1309 88.8955 41.4042 89.8688 41.7642 91.1222C41.9509 90.6422 42.1376 90.1555 42.3242 89.6622C42.5109 89.1555 42.7309 88.5422 42.9842 87.8222C43.2376 87.0888 43.5576 86.1622 43.9442 85.0422H43.0642L42.1442 83.6622L42.2842 83.3422H44.7842L46.0042 85.0222C45.4442 86.6888 44.9776 88.0622 44.6042 89.1422C44.2309 90.2088 43.9309 91.0422 43.7042 91.6422C43.4776 92.2422 43.2976 92.6622 43.1642 92.9022C43.0442 93.1422 42.9442 93.2622 42.8642 93.2622ZM51.1934 93.0822C50.8734 93.0822 50.4801 93.0022 50.0134 92.8422C49.5468 92.6688 49.0801 92.4488 48.6134 92.1822C48.1601 91.9022 47.7801 91.6022 47.4734 91.2822C47.1668 90.9488 47.0134 90.6222 47.0134 90.3022C47.0134 89.9822 47.0334 89.4288 47.0734 88.6422C47.1268 87.8555 47.1534 86.9155 47.1534 85.8222C47.1534 84.0888 48.1001 83.2222 49.9934 83.2222C50.2868 83.2222 50.6268 83.3155 51.0134 83.5022C51.4001 83.6755 51.7734 83.9088 52.1334 84.2022C52.4934 84.4822 52.7934 84.7755 53.0334 85.0822C53.2734 85.3888 53.3934 85.6755 53.3934 85.9422V87.5822C53.3934 88.6622 52.7934 89.2022 51.5934 89.2022C51.2201 89.2022 50.7934 89.1822 50.3134 89.1422C49.8334 89.0888 49.4068 89.0288 49.0334 88.9622C49.0201 89.4022 49.0068 89.8022 48.9934 90.1622C48.9934 90.5088 48.9934 90.7088 48.9934 90.7622C48.9934 90.9755 49.0468 91.1288 49.1534 91.2222C49.2601 91.3155 49.4534 91.3622 49.7334 91.3622C50.1468 91.3622 50.5934 91.3022 51.0734 91.1822C51.5668 91.0488 52.0068 90.8555 52.3934 90.6022H52.6934L53.7734 92.2422C53.5201 92.4822 53.1401 92.6822 52.6334 92.8422C52.1401 93.0022 51.6601 93.0822 51.1934 93.0822ZM49.0934 86.4622C49.0934 86.5688 49.0868 86.7288 49.0734 86.9422C49.0734 87.1555 49.0734 87.3955 49.0734 87.6622C49.4601 87.7022 49.9068 87.7222 50.4134 87.7222C50.8001 87.7222 51.0668 87.6288 51.2134 87.4422C51.3734 87.2422 51.4534 86.9422 51.4534 86.5422V85.4622C51.4534 85.3155 51.4134 85.1888 51.3334 85.0822C51.2534 84.9755 51.0801 84.9222 50.8134 84.9222C50.2801 84.9222 49.8601 85.0355 49.5534 85.2622C49.2468 85.4755 49.0934 85.8755 49.0934 86.4622ZM57.7845 93.2622C56.9312 92.9422 56.2712 92.6555 55.8045 92.4022C55.3512 92.1355 55.1245 91.8955 55.1245 91.6822C55.1245 91.4955 55.1445 91.2088 55.1845 90.8222C55.2379 90.4222 55.2645 90.0355 55.2645 89.6622V84.2822C55.2645 83.4822 55.2912 82.7488 55.3445 82.0822C55.4112 81.4022 55.4912 80.8555 55.5845 80.4422H54.7245L53.6245 79.1422L53.7645 78.8222H56.3645L57.5445 80.3422C57.4512 80.8622 57.3779 81.4555 57.3245 82.1222C57.2712 82.7755 57.2445 83.4422 57.2445 84.1222V89.8822C57.2445 90.3622 57.2245 90.7888 57.1845 91.1622C57.1445 91.5222 57.1245 91.7955 57.1245 91.9822C57.1245 92.1155 57.1712 92.2222 57.2645 92.3022C57.3712 92.3688 57.6245 92.5088 58.0245 92.7222L57.7845 93.2622Z" fill="#96172C"/>
</svg>
