<svg width="100" height="100" viewBox="0 0 100 100" fill="none" xmlns="http://www.w3.org/2000/svg">
<path d="M48.1399 48.1441V48.1441Z" fill="#96172C" stroke="#96172C" stroke-width="10"/>
<path d="M51.2858 48.7269L51.8637 48.1441L51.2858 48.7269Z" fill="#96172C" stroke="#96172C" stroke-width="10"/>
<mask id="path-3-inside-1_71_153" fill="white">
<path d="M48.4479 52.9504C48.1371 52.8225 47.7793 52.8932 47.5417 53.1291L42.4623 58.1655C42.2942 58.332 42.2061 58.5619 42.2201 58.7968C42.2341 59.032 42.3488 59.25 42.5352 59.396C44.1207 60.6362 46.0082 61.4663 47.9931 61.7965C48.039 61.8039 48.0851 61.8078 48.1308 61.8078C48.3261 61.8078 48.5168 61.7395 48.6681 61.6127C48.8549 61.4558 48.9625 61.2255 48.9625 60.9829L48.9615 53.712C48.9615 53.3786 48.7588 53.0778 48.4479 52.9504ZM44.3307 58.6454L47.2982 55.703L47.2988 59.9601C46.2486 59.6799 45.2447 59.2351 44.3307 58.6454Z"/>
</mask>
<path d="M48.4479 52.9504C48.1371 52.8225 47.7793 52.8932 47.5417 53.1291L42.4623 58.1655C42.2942 58.332 42.2061 58.5619 42.2201 58.7968C42.2341 59.032 42.3488 59.25 42.5352 59.396C44.1207 60.6362 46.0082 61.4663 47.9931 61.7965C48.039 61.8039 48.0851 61.8078 48.1308 61.8078C48.3261 61.8078 48.5168 61.7395 48.6681 61.6127C48.8549 61.4558 48.9625 61.2255 48.9625 60.9829L48.9615 53.712C48.9615 53.3786 48.7588 53.0778 48.4479 52.9504ZM44.3307 58.6454L47.2982 55.703L47.2988 59.9601C46.2486 59.6799 45.2447 59.2351 44.3307 58.6454Z" fill="#96172C"/>
<path d="M48.4479 52.9504L44.6447 62.1989L44.6549 62.2031L48.4479 52.9504ZM47.5417 53.1291L54.5826 60.2302L54.5885 60.2244L47.5417 53.1291ZM42.4623 58.1655L49.4988 65.2709L49.5032 65.2665L42.4623 58.1655ZM42.2201 58.7968L52.2024 58.2021L52.2023 58.2016L42.2201 58.7968ZM42.5352 59.396L36.37 67.2694L36.3741 67.2725L42.5352 59.396ZM47.9931 61.7965L46.3522 71.6609L46.3715 71.6642L46.3909 71.6673L47.9931 61.7965ZM48.6681 61.6127L55.093 69.2755L55.0979 69.2715L48.6681 61.6127ZM48.9625 60.9829H58.9625V60.9815L48.9625 60.9829ZM48.9615 53.712H38.9615L38.9615 53.7134L48.9615 53.712ZM44.3307 58.6454L37.2897 51.5445L28.4558 60.3037L38.9092 67.0482L44.3307 58.6454ZM47.2982 55.703L57.2982 55.7015L57.2948 31.7083L40.2572 48.602L47.2982 55.703ZM47.2988 59.9601L44.7205 69.622L57.3007 72.9791L57.2988 59.9587L47.2988 59.9601ZM52.2512 43.7018C48.2357 42.0505 43.599 42.951 40.4949 46.0339L54.5885 60.2244C51.9596 62.8354 48.0385 63.5945 44.6447 62.1989L52.2512 43.7018ZM40.5008 46.0281L35.4214 51.0644L49.5032 65.2665L54.5826 60.2302L40.5008 46.0281ZM35.4258 51.06C33.2236 53.2409 32.0518 56.2726 32.2378 59.3921L52.2023 58.2016C52.3603 60.8511 51.3648 63.4231 49.4988 65.2709L35.4258 51.06ZM32.2378 59.3916C32.4234 62.5063 33.9415 65.3678 36.37 67.2694L48.7004 51.5226C50.7561 53.1323 52.0448 55.5577 52.2024 58.2021L32.2378 59.3916ZM36.3741 67.2725C39.2761 69.5426 42.7176 71.0563 46.3522 71.6609L49.634 51.932C49.2987 51.8763 48.9654 51.7298 48.6964 51.5195L36.3741 67.2725ZM46.3909 71.6673C46.9461 71.7574 47.5281 71.8078 48.1308 71.8078V51.8078C48.642 51.8078 49.1318 51.8504 49.5952 51.9257L46.3909 71.6673ZM48.1308 71.8078C50.6506 71.8078 53.1219 70.9282 55.093 69.2755L42.2431 53.9498C43.9116 52.5508 46.0017 51.8078 48.1308 51.8078V71.8078ZM55.0979 69.2715C57.5358 67.2248 58.9625 64.1963 58.9625 60.9829H38.9625C38.9625 58.2547 40.1739 55.6869 42.2383 53.9538L55.0979 69.2715ZM58.9625 60.9815L58.9615 53.7106L38.9615 53.7134L38.9625 60.9843L58.9625 60.9815ZM58.9615 53.712C58.9615 49.2844 56.2729 45.3505 52.241 43.6976L44.6549 62.2031C41.2448 60.8051 38.9615 57.4728 38.9615 53.712H58.9615ZM51.3717 65.7464L54.3392 62.804L40.2572 48.602L37.2897 51.5445L51.3717 65.7464ZM37.2982 55.7044L37.2988 59.9616L57.2988 59.9587L57.2982 55.7015L37.2982 55.7044ZM49.8771 50.2982C49.8357 50.2872 49.7909 50.2676 49.7522 50.2426L38.9092 67.0482C40.6984 68.2027 42.6615 69.0726 44.7205 69.622L49.8771 50.2982Z" fill="#96172C" mask="url(#path-3-inside-1_71_153)"/>
<mask id="path-5-inside-2_71_153" fill="white">
<path d="M52.4619 53.1293C52.2243 52.8935 51.8661 52.8228 51.5557 52.9505C51.2448 53.0781 51.0421 53.3787 51.0421 53.7123V60.983C51.0421 61.2256 51.1497 61.4557 51.3366 61.6126C51.4878 61.7394 51.6785 61.8077 51.8739 61.8077C51.9195 61.8077 51.9656 61.8038 52.0115 61.7964C53.9958 61.4662 55.8829 60.6361 57.4684 59.3961C57.6548 59.2501 57.7695 59.0321 57.7835 58.7969C57.7975 58.562 57.7094 58.3321 57.5413 58.1656L52.4619 53.1293ZM52.7056 59.96V55.7033L55.6729 58.6455C54.7591 59.2352 53.7554 59.6798 52.7056 59.96Z"/>
</mask>
<path d="M52.4619 53.1293C52.2243 52.8935 51.8661 52.8228 51.5557 52.9505C51.2448 53.0781 51.0421 53.3787 51.0421 53.7123V60.983C51.0421 61.2256 51.1497 61.4557 51.3366 61.6126C51.4878 61.7394 51.6785 61.8077 51.8739 61.8077C51.9195 61.8077 51.9656 61.8038 52.0115 61.7964C53.9958 61.4662 55.8829 60.6361 57.4684 59.3961C57.6548 59.2501 57.7695 59.0321 57.7835 58.7969C57.7975 58.562 57.7094 58.3321 57.5413 58.1656L52.4619 53.1293ZM52.7056 59.96V55.7033L55.6729 58.6455C54.7591 59.2352 53.7554 59.6798 52.7056 59.96Z" fill="#96172C"/>
<path d="M52.4619 53.1293L45.4181 60.2275L45.421 60.2303L52.4619 53.1293ZM51.5557 52.9505L55.3538 62.2011L55.358 62.1994L51.5557 52.9505ZM51.3366 61.6126L44.9068 69.2714L44.9117 69.2755L51.3366 61.6126ZM52.0115 61.7964L53.6141 71.6671L53.6335 71.664L53.6529 71.6608L52.0115 61.7964ZM57.4684 59.3961L63.6289 67.2731L63.6336 67.2695L57.4684 59.3961ZM57.7835 58.7969L47.8012 58.2017L47.8012 58.2022L57.7835 58.7969ZM57.5413 58.1656L50.5003 65.2667L50.5047 65.271L57.5413 58.1656ZM52.7056 59.96H42.7056V72.9798L55.2848 69.6217L52.7056 59.96ZM52.7056 55.7033L59.7466 48.6023L42.7056 31.7052V55.7033H52.7056ZM55.6729 58.6455L61.0953 67.0478L71.5469 60.3029L62.7139 51.5446L55.6729 58.6455ZM59.5057 46.031C56.4029 42.952 51.7684 42.0509 47.7533 43.7016L55.358 62.1994C51.9639 63.5947 48.0457 62.8349 45.4181 60.2275L59.5057 46.031ZM47.7575 43.6998C43.7324 45.3525 41.0421 49.2821 41.0421 53.7123H61.0421C61.0421 57.4753 58.7571 60.8037 55.3538 62.2011L47.7575 43.6998ZM41.0421 53.7123V60.983H61.0421V53.7123H41.0421ZM41.0421 60.983C41.0421 64.1991 42.4708 67.2264 44.9068 69.2714L57.7663 53.9537C59.8286 55.6851 61.0421 58.2522 61.0421 60.983H41.0421ZM44.9117 69.2755C46.8827 70.9281 49.354 71.8077 51.8739 71.8077V51.8077C54.003 51.8077 56.093 52.5507 57.7614 53.9496L44.9117 69.2755ZM51.8739 71.8077C52.4762 71.8077 53.0583 71.7574 53.6141 71.6671L50.4089 51.9256C50.873 51.8503 51.3629 51.8077 51.8739 51.8077V71.8077ZM53.6529 71.6608C57.2873 71.056 60.7278 69.542 63.6289 67.2731L51.3078 51.5191C51.0379 51.7302 50.7043 51.8764 50.3701 51.932L53.6529 71.6608ZM63.6336 67.2695C66.0622 65.3678 67.5802 62.5062 67.7658 59.3917L47.8012 58.2022C47.9588 55.558 49.2474 53.1325 51.3032 51.5227L63.6336 67.2695ZM67.7658 59.3922C67.9518 56.2727 66.78 53.241 64.5778 51.0601L50.5047 65.271C48.6388 63.4232 47.6433 60.8512 47.8012 58.2017L67.7658 59.3922ZM64.5822 51.0645L59.5028 46.0282L45.421 60.2303L50.5003 65.2667L64.5822 51.0645ZM62.7056 59.96V55.7033H42.7056V59.96H62.7056ZM45.6646 62.8043L48.6319 65.7465L62.7139 51.5446L59.7466 48.6023L45.6646 62.8043ZM50.2505 50.2433C50.213 50.2675 50.1685 50.2871 50.1264 50.2984L55.2848 69.6217C57.3423 69.0725 59.3053 68.203 61.0953 67.0478L50.2505 50.2433Z" fill="#96172C" mask="url(#path-5-inside-2_71_153)"/>
<mask id="path-7-inside-3_71_153" fill="white">
<path d="M96.9437 50.6207L88.5041 54.8046L82.2606 53.7019C82.1617 53.684 82.0604 53.6844 81.9615 53.7031L66.6142 56.5562C65.9096 56.688 65.223 56.2497 65.0494 55.5612L65.0198 55.4436C64.9809 55.2895 64.9715 55.1336 64.987 54.9808C65.0455 54.8086 65.1017 54.6355 65.1542 54.4607C65.1659 54.44 65.1766 54.4189 65.1895 54.3987C65.3879 54.0878 65.6968 53.876 66.0597 53.8016L80.0631 51.4009C80.4441 51.3356 80.7296 51.0185 80.7517 50.6356C80.774 50.2529 80.5271 49.9054 80.1561 49.7971L65.9719 45.6601C65.965 45.6583 65.9583 45.6563 65.9514 45.6545C65.2403 45.4666 64.8072 44.7378 64.9857 44.0301C65.0772 43.6667 65.3091 43.3659 65.6387 43.1831C65.9681 43.0005 66.3478 42.9616 66.7139 43.0758C66.7139 43.0758 83.3998 48.2504 83.4958 48.2722L83.8638 46.6635C83.8203 46.6539 79.8538 45.3492 79.8538 45.3492C79.151 45.1177 78.7491 44.3804 78.939 43.6709C79.0395 43.2954 79.2846 42.9872 79.6292 42.8026C79.974 42.618 80.3685 42.5841 80.7401 42.7068L84.6186 43.987L85.1441 42.4223L80.8475 41.0039C80.2331 40.8009 79.883 40.1563 80.0507 39.536C80.199 38.9892 80.7064 38.6201 81.2713 38.636L88.5567 38.8527C90.551 38.9121 92.463 39.5513 94.0859 40.7015L97.9178 43.4169C98.0596 43.5173 98.2289 43.5707 98.4015 43.5707C98.4328 43.5707 98.4641 43.5689 98.4955 43.5654L100 43.3959L99.812 41.7571L98.6251 41.8908L95.0532 39.3598C93.1609 38.0187 90.9319 37.2732 88.6067 37.2042L81.3213 36.9875C79.9849 36.9424 78.7928 37.8196 78.4441 39.1087C78.2279 39.9083 78.3786 40.7239 78.7946 41.3782C78.0758 41.7789 77.5429 42.4565 77.3311 43.2479C77.212 43.6931 77.2027 44.1425 77.2817 44.57L67.2082 41.501C66.6117 41.3147 65.971 41.3199 65.3816 41.5059C65.712 41.215 65.9823 40.848 66.162 40.4186L72.0881 26.2581L76.5185 21.5898C76.6411 21.4606 76.7185 21.2957 76.739 21.1193L77.8258 11.7932L86.6482 1.0411L85.3579 0.000208213L76.3822 10.939C76.2821 11.061 76.2194 11.2086 76.2011 11.3648L75.1182 20.6587L70.7725 25.2378C70.7036 25.3105 70.6486 25.3948 70.61 25.4868L64.6256 39.7864C64.3511 40.4422 63.6059 40.774 62.9293 40.541L62.8141 40.5016C62.6396 40.4416 62.4831 40.3493 62.3504 40.2309C62.2655 40.1255 62.1801 40.0207 62.0925 39.9175C62.0678 39.8762 62.045 39.8336 62.0246 39.7893C61.8707 39.4544 61.8608 39.0824 61.9964 38.7403L67.6279 25.8035C67.781 25.4516 67.6693 25.0411 67.3582 24.8134C67.0475 24.5857 66.6189 24.6008 66.3244 24.8492L55.0739 34.3605C55.0686 34.3652 55.0631 34.3698 55.0578 34.3744C54.5104 34.8623 53.6581 34.8228 53.158 34.2879C52.9013 34.013 52.7742 33.6559 52.8 33.2822C52.8258 32.9087 53.0008 32.5723 53.2975 32.3313C53.2975 32.3313 66.7915 21.3118 66.8623 21.244L65.7073 20.0569C65.6749 20.0881 62.4031 22.6678 62.4031 22.6678C61.8236 23.1246 60.9811 23.0549 60.4858 22.5089C60.2237 22.2202 60.0976 21.8482 60.1303 21.4614C60.163 21.0743 60.3499 20.7282 60.6566 20.4869L63.8591 17.9675L62.8251 16.6753L59.2776 19.4662C58.77 19.8656 58.0345 19.8032 57.6024 19.3251C57.2216 18.9031 57.1837 18.284 57.51 17.8195L61.6776 11.8907C62.8182 10.2677 64.4037 9.03036 66.2625 8.312L70.6511 6.61618C70.8427 6.54229 70.9999 6.40035 71.0923 6.21815L73.7912 0.890905L72.3048 0.150405L69.7493 5.19458L65.6586 6.77544C63.4911 7.61278 61.6427 9.05552 60.3128 10.9476L56.1454 16.8765C55.3758 17.9713 55.4652 19.4304 56.3629 20.4249C56.9199 21.0417 57.6908 21.3628 58.4709 21.3753C58.4161 22.1909 58.697 23.0038 59.2492 23.6122C59.5598 23.9544 59.9333 24.2093 60.3372 24.3776L52.2381 31.0597C51.5973 31.5805 51.1972 32.3496 51.1404 33.1695C51.1117 33.5846 51.1727 33.9984 51.3124 34.3844C50.8797 34.3491 50.4435 34.3263 50.0018 34.3263C49.5568 34.3263 49.1173 34.3493 48.6815 34.3852C49.0338 33.3644 48.818 32.1926 48.0277 31.3607L37.4259 20.2007L34.9451 14.2809C34.8765 14.1172 34.7565 13.9795 34.6025 13.8889L26.4667 9.08612L21.9358 0.150192L20.4494 0.891094L25.0893 10.042C25.1606 10.1824 25.2709 10.2997 25.4071 10.3801L33.5147 15.1661L35.9482 20.9728C35.9868 21.0648 36.0418 21.1491 36.1107 21.2216L46.8166 32.4914C47.3076 33.0084 47.3076 33.8179 46.8166 34.3346L46.7325 34.4229C46.4759 34.6931 46.1284 34.8429 45.7542 34.8451C45.3838 34.8492 45.0366 34.7042 44.7773 34.4413L35.1806 24.0487C34.9195 23.766 34.4965 23.6984 34.1592 23.887C33.8222 24.0751 33.6603 24.4687 33.7688 24.8367L37.912 38.9086C37.914 38.9153 37.9161 38.9219 37.9183 38.9288C38.1423 39.6236 37.7575 40.3787 37.0604 40.6119C36.702 40.7313 36.3218 40.7001 35.9886 40.5237C35.6556 40.3473 35.4178 40.0514 35.3173 39.6844C35.3173 39.6844 30.7056 22.9665 30.6723 22.8745L29.1063 23.431C29.1217 23.4737 30.1555 27.4901 30.1555 27.4901C30.3383 28.2016 29.9291 28.9346 29.2241 29.1591C28.851 29.2779 28.4569 29.2396 28.1143 29.0518C27.7718 28.8638 27.5299 28.5529 27.4335 28.1764L26.4271 24.248L24.8148 24.6539L25.9296 29.0057C26.089 29.6282 25.7304 30.2683 25.1133 30.4631C24.5695 30.6347 23.9839 30.4154 23.6905 29.93L19.9422 23.732C18.9161 22.0358 18.4269 20.095 18.5276 18.1193L18.7648 13.4552C18.7752 13.2515 18.709 13.0513 18.579 12.8931L7.99206 0L6.70222 1.04129L17.0873 13.6888L16.8662 18.0361C16.7488 20.3396 17.3192 22.6023 18.5155 24.5802L22.2638 30.778C22.7982 31.6619 23.742 32.1712 24.7352 32.1712C25.0282 32.1712 25.3257 32.127 25.6179 32.0347C26.413 31.7837 27.024 31.2181 27.355 30.5183C27.8014 30.7533 28.2978 30.8745 28.7968 30.8745C29.1122 30.8745 29.4283 30.8265 29.7327 30.7295C30.1751 30.5887 30.5618 30.3539 30.8822 30.0572L33.7135 40.1216C33.8563 40.6443 34.1434 41.1144 34.5303 41.4864C34.1201 41.3775 33.682 41.35 33.2388 41.4263L18.0042 44.0498L11.6549 42.841C11.4792 42.8076 11.2973 42.8314 11.136 42.9085L2.61115 46.9945L0.195344 46.7112L0 48.3493L2.65684 48.6607C2.81422 48.6793 2.97382 48.6525 3.11657 48.5842L11.612 44.5123L17.8399 45.6981C17.9384 45.7169 18.0397 45.7177 18.139 45.7008L33.5235 43.0514C34.2281 42.9288 34.9102 43.3758 35.0746 44.0667L35.1027 44.1849C35.1448 44.3616 35.1501 44.5403 35.1212 44.7133C35.0725 44.8477 35.0273 44.9838 34.9822 45.1199C34.9627 45.1563 34.9421 45.1922 34.9191 45.2272C34.7164 45.5355 34.4047 45.7432 34.0409 45.8129L20.0061 48.0278C19.6242 48.0879 19.3346 48.4012 19.3072 48.7838C19.28 49.1663 19.522 49.517 19.8916 49.6302L34.0187 53.9548C34.0254 53.9568 34.0321 53.9588 34.039 53.9606C34.7475 54.1581 35.1709 54.8926 34.9829 55.598C34.8864 55.96 34.6505 56.2576 34.3187 56.436C33.9864 56.6148 33.6063 56.648 33.2418 56.529C33.2418 56.529 16.6272 51.1337 16.533 51.1111L16.1407 52.7137C16.1847 52.7244 20.1341 54.0816 20.1341 54.0816C20.8336 54.3226 21.2253 55.0651 21.0259 55.7722C20.9205 56.1461 20.6714 56.4511 20.3243 56.6311C19.9769 56.8111 19.5821 56.8403 19.2122 56.7122L15.3512 55.3806L14.8045 56.9385L19.0816 58.4137C19.6934 58.6247 20.0346 59.274 19.8585 59.8918C19.7034 60.4366 19.2006 60.8033 18.6257 60.7755L11.3442 60.4624C9.35074 60.3766 7.44765 59.7121 5.84023 58.5405L2.04523 55.7744C1.87953 55.6536 1.67363 55.5986 1.46975 55.6182L0.0148258 55.7627L0.180524 57.404L1.31746 57.291L4.85498 59.8693C6.72902 61.2353 8.94786 62.0101 11.2721 62.1101L18.5536 62.4232C18.5967 62.425 18.6393 62.426 18.6822 62.426C19.9738 62.426 21.1049 61.5836 21.4594 60.3404C21.6864 59.5438 21.5467 58.7263 21.1395 58.0667C21.8637 57.6754 22.4057 57.0049 22.6281 56.2163C22.7531 55.7728 22.7686 55.3235 22.6953 54.895L32.7265 58.0972C33.0329 58.1974 33.3519 58.247 33.6701 58.247C34.1692 58.247 34.6667 58.1252 35.1116 57.8858C35.4395 57.7095 35.7262 57.4724 35.9648 57.1951C36.0709 57.3978 36.1814 57.5978 36.2961 57.7952C35.211 57.903 34.2249 58.5888 33.7925 59.651L28.0075 73.8685L23.6235 78.5797C23.502 78.7101 23.4263 78.876 23.4076 79.0524L22.4134 88.3888L13.9078 98.9651L15.2086 99.9936L23.8655 89.2289C23.9642 89.1059 24.0255 88.9575 24.0422 88.8013L25.0329 79.4973L29.3331 74.8762C29.4013 74.8029 29.4556 74.7179 29.4933 74.6253L35.3352 60.2681C35.6034 59.6098 36.3446 59.2713 37.0234 59.4964L37.1398 59.5353C37.4945 59.6535 37.7774 59.9035 37.9362 60.2397C38.0936 60.5729 38.1072 60.9448 37.9752 61.2881L32.472 74.2796C32.3222 74.6332 32.4379 75.0423 32.7512 75.2672C33.065 75.4922 33.4932 75.4729 33.7846 75.2211L44.9403 65.6002C44.9456 65.5958 44.9509 65.5909 44.9562 65.5863C45.4992 65.0935 46.3516 65.1245 46.857 65.6548C47.1163 65.927 47.2469 66.2825 47.2248 66.6564C47.2026 67.0301 47.0311 67.3683 46.7368 67.6123C46.7368 67.6123 33.3527 78.7631 33.2826 78.8315L34.4494 80.0069C34.4817 79.9755 37.7274 77.3642 37.7274 77.3642C38.3027 76.902 39.1454 76.9632 39.6464 77.5044C39.9111 77.7905 40.0411 78.1613 40.0123 78.5485C39.9834 78.9354 39.8002 79.283 39.4963 79.5274L36.3184 82.0786L37.365 83.3603L40.8848 80.535C41.3878 80.1307 42.1245 80.1861 42.5611 80.6602C42.9463 81.0782 42.9904 81.6969 42.6685 82.1646L38.5602 88.1337C37.4354 89.7677 35.8621 91.0206 34.0106 91.7569L29.6391 93.4952C29.4482 93.5711 29.2925 93.7146 29.2019 93.8978L26.6227 99.1165L28.1164 99.8422L30.5551 94.9081L34.6299 93.2878C36.7887 92.4293 38.6227 90.9684 39.9341 89.0634L44.0424 83.0943C44.8012 81.9917 44.6971 80.5334 43.7896 79.5481C43.2265 78.9369 42.4523 78.6236 41.6724 78.6186C41.719 77.8021 41.4303 76.9922 40.8718 76.389C40.5577 76.0496 40.1809 75.7997 39.775 75.6354L47.8088 68.8735C48.4446 68.3462 48.8369 67.5733 48.8854 66.7528C48.9083 66.3655 48.8513 65.9805 48.7274 65.6183C49.1483 65.6517 49.5724 65.6737 50.0018 65.6737C50.4737 65.6737 50.9397 65.6492 51.4011 65.6089C51.0322 66.6375 51.2445 67.8261 52.0434 68.6673L62.6452 79.8273L65.1262 85.7471C65.1948 85.911 65.3148 86.0485 65.4688 86.1391L73.6044 90.9421L78.121 99.8498L79.6074 99.1089L74.9817 89.9862C74.9105 89.8458 74.8002 89.7284 74.6639 89.6481L66.5565 84.8618L64.1229 79.0552C64.0843 78.9632 64.0293 78.8789 63.9604 78.8064L53.2545 67.5366C52.7635 67.0198 52.7637 66.21 53.2545 65.6934L53.3385 65.605C53.5952 65.3349 53.9428 65.1851 54.3171 65.1828H54.3254C54.6933 65.1828 55.0365 65.326 55.2938 65.5867L64.8904 75.9793C65.1514 76.2617 65.5743 76.3292 65.9118 76.1409C66.2489 75.9529 66.4107 75.5593 66.3023 75.1913L62.1591 61.1194C62.157 61.1127 62.155 61.1061 62.1528 61.0992C61.9288 60.4042 62.3136 59.6494 63.0111 59.4163C63.3687 59.2967 63.7492 59.3279 64.0825 59.5043C64.4157 59.6806 64.6535 59.9768 64.754 60.3438C64.754 60.3438 69.3659 77.0624 69.3988 77.1534L70.9648 76.597C70.9493 76.5543 69.9156 72.5379 69.9156 72.5379C69.733 71.8266 70.1422 71.0933 70.8472 70.8689C71.2204 70.7501 71.6142 70.7881 71.9567 70.9764C72.2986 71.1639 72.5399 71.4737 72.6369 71.8485L73.6442 75.78L75.2565 75.3741L74.2501 71.4455L74.2489 71.4417L74.1415 71.0223C73.9821 70.3998 74.3407 69.7597 74.9578 69.565C75.5024 69.3933 76.0872 69.6128 76.3808 70.098L80.1289 76.296C81.155 77.9922 81.6441 79.933 81.5436 81.9089L81.3063 86.573C81.2959 86.7765 81.3621 86.9768 81.4921 87.1351L92.0561 100L93.3459 98.9587L82.9837 86.3396L83.2051 81.9919C83.3222 79.6884 82.7518 77.4254 81.5556 75.4478L77.8073 69.2498C77.1151 68.1056 75.7367 67.589 74.4534 67.9934C73.6578 68.2445 73.0466 68.8104 72.7156 69.5108C71.9873 69.1268 71.1246 69.0482 70.3383 69.2985C69.896 69.4394 69.5093 69.6742 69.1889 69.9709L66.3578 59.9065C66.1409 59.1133 65.5971 58.4364 64.8661 58.0495C64.5186 57.8655 64.1397 57.7552 63.7537 57.7157C63.8584 57.5329 63.9593 57.3479 64.0568 57.1606C64.6224 57.825 65.4637 58.2287 66.3641 58.2286C66.5478 58.2286 66.7342 58.2119 66.9208 58.1773L82.1187 55.352L88.4838 56.4764C88.6597 56.5072 88.8414 56.4813 89.0016 56.4022L97.4707 52.2036L99.8195 52.4474L99.9925 50.8069L97.4023 50.5382C97.2447 50.5219 97.0855 50.5504 96.9437 50.6207ZM76.258 50.3795L65.7642 52.1784C65.7571 52.1796 65.75 52.181 65.7429 52.1824C65.7115 52.1887 65.6815 52.1983 65.6505 52.2055C65.7534 51.4844 65.8101 50.7488 65.8101 50C65.8101 49.0651 65.7224 48.1506 65.5633 47.2602L76.258 50.3795ZM34.3699 52.336L23.7973 49.0996L34.3144 47.4399L34.3357 47.4362C34.3615 47.4315 34.3862 47.4237 34.4118 47.4183C34.2706 48.2588 34.1936 49.1204 34.1936 50C34.1936 50.7938 34.2545 51.5736 34.3699 52.336ZM64.6843 28.4033L60.4641 38.0979C60.4613 38.1045 60.4584 38.1111 60.4558 38.1178C60.4415 38.1532 60.4314 38.1894 60.4185 38.2251C59.1683 37.1365 57.746 36.2379 56.1949 35.5805L64.6843 28.4033ZM36.3671 27.776L43.5585 35.5639C43.5634 35.5691 43.5685 35.5744 43.5735 35.5796C43.5982 35.605 43.6253 35.627 43.6507 35.6514C42.1152 36.3222 40.7066 37.2268 39.4723 38.322L36.3671 27.776ZM36.2383 42.3043C36.198 42.375 36.1551 42.4439 36.1158 42.5152C36.0352 42.415 35.9506 42.3185 35.8584 42.2298C35.9835 42.2624 36.1103 42.2879 36.2383 42.3043ZM35.3896 71.651L39.5133 61.9158C39.5162 61.9092 39.519 61.9025 39.5217 61.8959C39.5393 61.8509 39.552 61.8051 39.5675 61.7597C40.8159 62.85 42.2368 63.75 43.7865 64.4095L35.3896 71.651ZM63.7039 72.252L56.5126 64.4641C56.5077 64.4589 56.5028 64.4536 56.4977 64.4484C56.4595 64.4091 56.4182 64.3741 56.3783 64.3372C57.9232 63.6591 59.34 62.7451 60.5785 61.6374L63.7039 72.252ZM63.5966 53.863C63.485 54.1006 63.4051 54.3486 63.3603 54.6027C61.4345 60.0812 56.1755 64.0244 50.0018 64.0244C42.2023 64.0244 35.857 57.7332 35.857 50C35.857 48.511 36.0944 47.0764 36.53 45.7289C36.6143 45.5463 36.679 45.3577 36.724 45.1646C38.715 39.8069 43.9154 35.9756 50.0018 35.9756C54.3077 35.9756 58.1676 37.8954 60.764 40.9143C60.8666 41.0646 60.9819 41.2038 61.1088 41.3317C63.0086 43.7196 64.1466 46.7296 64.1466 50C64.1466 51.3399 63.9521 52.6348 63.5966 53.863ZM63.902 42.5402C63.8466 42.4392 63.7864 42.3411 63.7288 42.2415C63.9235 42.2183 64.1145 42.1767 64.2996 42.1174C64.1538 42.2458 64.02 42.3869 63.902 42.5402Z"/>
</mask>
<path d="M96.9437 50.6207L88.5041 54.8046L82.2606 53.7019C82.1617 53.684 82.0604 53.6844 81.9615 53.7031L66.6142 56.5562C65.9096 56.688 65.223 56.2497 65.0494 55.5612L65.0198 55.4436C64.9809 55.2895 64.9715 55.1336 64.987 54.9808C65.0455 54.8086 65.1017 54.6355 65.1542 54.4607C65.1659 54.44 65.1766 54.4189 65.1895 54.3987C65.3879 54.0878 65.6968 53.876 66.0597 53.8016L80.0631 51.4009C80.4441 51.3356 80.7296 51.0185 80.7517 50.6356C80.774 50.2529 80.5271 49.9054 80.1561 49.7971L65.9719 45.6601C65.965 45.6583 65.9583 45.6563 65.9514 45.6545C65.2403 45.4666 64.8072 44.7378 64.9857 44.0301C65.0772 43.6667 65.3091 43.3659 65.6387 43.1831C65.9681 43.0005 66.3478 42.9616 66.7139 43.0758C66.7139 43.0758 83.3998 48.2504 83.4958 48.2722L83.8638 46.6635C83.8203 46.6539 79.8538 45.3492 79.8538 45.3492C79.151 45.1177 78.7491 44.3804 78.939 43.6709C79.0395 43.2954 79.2846 42.9872 79.6292 42.8026C79.974 42.618 80.3685 42.5841 80.7401 42.7068L84.6186 43.987L85.1441 42.4223L80.8475 41.0039C80.2331 40.8009 79.883 40.1563 80.0507 39.536C80.199 38.9892 80.7064 38.6201 81.2713 38.636L88.5567 38.8527C90.551 38.9121 92.463 39.5513 94.0859 40.7015L97.9178 43.4169C98.0596 43.5173 98.2289 43.5707 98.4015 43.5707C98.4328 43.5707 98.4641 43.5689 98.4955 43.5654L100 43.3959L99.812 41.7571L98.6251 41.8908L95.0532 39.3598C93.1609 38.0187 90.9319 37.2732 88.6067 37.2042L81.3213 36.9875C79.9849 36.9424 78.7928 37.8196 78.4441 39.1087C78.2279 39.9083 78.3786 40.7239 78.7946 41.3782C78.0758 41.7789 77.5429 42.4565 77.3311 43.2479C77.212 43.6931 77.2027 44.1425 77.2817 44.57L67.2082 41.501C66.6117 41.3147 65.971 41.3199 65.3816 41.5059C65.712 41.215 65.9823 40.848 66.162 40.4186L72.0881 26.2581L76.5185 21.5898C76.6411 21.4606 76.7185 21.2957 76.739 21.1193L77.8258 11.7932L86.6482 1.0411L85.3579 0.000208213L76.3822 10.939C76.2821 11.061 76.2194 11.2086 76.2011 11.3648L75.1182 20.6587L70.7725 25.2378C70.7036 25.3105 70.6486 25.3948 70.61 25.4868L64.6256 39.7864C64.3511 40.4422 63.6059 40.774 62.9293 40.541L62.8141 40.5016C62.6396 40.4416 62.4831 40.3493 62.3504 40.2309C62.2655 40.1255 62.1801 40.0207 62.0925 39.9175C62.0678 39.8762 62.045 39.8336 62.0246 39.7893C61.8707 39.4544 61.8608 39.0824 61.9964 38.7403L67.6279 25.8035C67.781 25.4516 67.6693 25.0411 67.3582 24.8134C67.0475 24.5857 66.6189 24.6008 66.3244 24.8492L55.0739 34.3605C55.0686 34.3652 55.0631 34.3698 55.0578 34.3744C54.5104 34.8623 53.6581 34.8228 53.158 34.2879C52.9013 34.013 52.7742 33.6559 52.8 33.2822C52.8258 32.9087 53.0008 32.5723 53.2975 32.3313C53.2975 32.3313 66.7915 21.3118 66.8623 21.244L65.7073 20.0569C65.6749 20.0881 62.4031 22.6678 62.4031 22.6678C61.8236 23.1246 60.9811 23.0549 60.4858 22.5089C60.2237 22.2202 60.0976 21.8482 60.1303 21.4614C60.163 21.0743 60.3499 20.7282 60.6566 20.4869L63.8591 17.9675L62.8251 16.6753L59.2776 19.4662C58.77 19.8656 58.0345 19.8032 57.6024 19.3251C57.2216 18.9031 57.1837 18.284 57.51 17.8195L61.6776 11.8907C62.8182 10.2677 64.4037 9.03036 66.2625 8.312L70.6511 6.61618C70.8427 6.54229 70.9999 6.40035 71.0923 6.21815L73.7912 0.890905L72.3048 0.150405L69.7493 5.19458L65.6586 6.77544C63.4911 7.61278 61.6427 9.05552 60.3128 10.9476L56.1454 16.8765C55.3758 17.9713 55.4652 19.4304 56.3629 20.4249C56.9199 21.0417 57.6908 21.3628 58.4709 21.3753C58.4161 22.1909 58.697 23.0038 59.2492 23.6122C59.5598 23.9544 59.9333 24.2093 60.3372 24.3776L52.2381 31.0597C51.5973 31.5805 51.1972 32.3496 51.1404 33.1695C51.1117 33.5846 51.1727 33.9984 51.3124 34.3844C50.8797 34.3491 50.4435 34.3263 50.0018 34.3263C49.5568 34.3263 49.1173 34.3493 48.6815 34.3852C49.0338 33.3644 48.818 32.1926 48.0277 31.3607L37.4259 20.2007L34.9451 14.2809C34.8765 14.1172 34.7565 13.9795 34.6025 13.8889L26.4667 9.08612L21.9358 0.150192L20.4494 0.891094L25.0893 10.042C25.1606 10.1824 25.2709 10.2997 25.4071 10.3801L33.5147 15.1661L35.9482 20.9728C35.9868 21.0648 36.0418 21.1491 36.1107 21.2216L46.8166 32.4914C47.3076 33.0084 47.3076 33.8179 46.8166 34.3346L46.7325 34.4229C46.4759 34.6931 46.1284 34.8429 45.7542 34.8451C45.3838 34.8492 45.0366 34.7042 44.7773 34.4413L35.1806 24.0487C34.9195 23.766 34.4965 23.6984 34.1592 23.887C33.8222 24.0751 33.6603 24.4687 33.7688 24.8367L37.912 38.9086C37.914 38.9153 37.9161 38.9219 37.9183 38.9288C38.1423 39.6236 37.7575 40.3787 37.0604 40.6119C36.702 40.7313 36.3218 40.7001 35.9886 40.5237C35.6556 40.3473 35.4178 40.0514 35.3173 39.6844C35.3173 39.6844 30.7056 22.9665 30.6723 22.8745L29.1063 23.431C29.1217 23.4737 30.1555 27.4901 30.1555 27.4901C30.3383 28.2016 29.9291 28.9346 29.2241 29.1591C28.851 29.2779 28.4569 29.2396 28.1143 29.0518C27.7718 28.8638 27.5299 28.5529 27.4335 28.1764L26.4271 24.248L24.8148 24.6539L25.9296 29.0057C26.089 29.6282 25.7304 30.2683 25.1133 30.4631C24.5695 30.6347 23.9839 30.4154 23.6905 29.93L19.9422 23.732C18.9161 22.0358 18.4269 20.095 18.5276 18.1193L18.7648 13.4552C18.7752 13.2515 18.709 13.0513 18.579 12.8931L7.99206 0L6.70222 1.04129L17.0873 13.6888L16.8662 18.0361C16.7488 20.3396 17.3192 22.6023 18.5155 24.5802L22.2638 30.778C22.7982 31.6619 23.742 32.1712 24.7352 32.1712C25.0282 32.1712 25.3257 32.127 25.6179 32.0347C26.413 31.7837 27.024 31.2181 27.355 30.5183C27.8014 30.7533 28.2978 30.8745 28.7968 30.8745C29.1122 30.8745 29.4283 30.8265 29.7327 30.7295C30.1751 30.5887 30.5618 30.3539 30.8822 30.0572L33.7135 40.1216C33.8563 40.6443 34.1434 41.1144 34.5303 41.4864C34.1201 41.3775 33.682 41.35 33.2388 41.4263L18.0042 44.0498L11.6549 42.841C11.4792 42.8076 11.2973 42.8314 11.136 42.9085L2.61115 46.9945L0.195344 46.7112L0 48.3493L2.65684 48.6607C2.81422 48.6793 2.97382 48.6525 3.11657 48.5842L11.612 44.5123L17.8399 45.6981C17.9384 45.7169 18.0397 45.7177 18.139 45.7008L33.5235 43.0514C34.2281 42.9288 34.9102 43.3758 35.0746 44.0667L35.1027 44.1849C35.1448 44.3616 35.1501 44.5403 35.1212 44.7133C35.0725 44.8477 35.0273 44.9838 34.9822 45.1199C34.9627 45.1563 34.9421 45.1922 34.9191 45.2272C34.7164 45.5355 34.4047 45.7432 34.0409 45.8129L20.0061 48.0278C19.6242 48.0879 19.3346 48.4012 19.3072 48.7838C19.28 49.1663 19.522 49.517 19.8916 49.6302L34.0187 53.9548C34.0254 53.9568 34.0321 53.9588 34.039 53.9606C34.7475 54.1581 35.1709 54.8926 34.9829 55.598C34.8864 55.96 34.6505 56.2576 34.3187 56.436C33.9864 56.6148 33.6063 56.648 33.2418 56.529C33.2418 56.529 16.6272 51.1337 16.533 51.1111L16.1407 52.7137C16.1847 52.7244 20.1341 54.0816 20.1341 54.0816C20.8336 54.3226 21.2253 55.0651 21.0259 55.7722C20.9205 56.1461 20.6714 56.4511 20.3243 56.6311C19.9769 56.8111 19.5821 56.8403 19.2122 56.7122L15.3512 55.3806L14.8045 56.9385L19.0816 58.4137C19.6934 58.6247 20.0346 59.274 19.8585 59.8918C19.7034 60.4366 19.2006 60.8033 18.6257 60.7755L11.3442 60.4624C9.35074 60.3766 7.44765 59.7121 5.84023 58.5405L2.04523 55.7744C1.87953 55.6536 1.67363 55.5986 1.46975 55.6182L0.0148258 55.7627L0.180524 57.404L1.31746 57.291L4.85498 59.8693C6.72902 61.2353 8.94786 62.0101 11.2721 62.1101L18.5536 62.4232C18.5967 62.425 18.6393 62.426 18.6822 62.426C19.9738 62.426 21.1049 61.5836 21.4594 60.3404C21.6864 59.5438 21.5467 58.7263 21.1395 58.0667C21.8637 57.6754 22.4057 57.0049 22.6281 56.2163C22.7531 55.7728 22.7686 55.3235 22.6953 54.895L32.7265 58.0972C33.0329 58.1974 33.3519 58.247 33.6701 58.247C34.1692 58.247 34.6667 58.1252 35.1116 57.8858C35.4395 57.7095 35.7262 57.4724 35.9648 57.1951C36.0709 57.3978 36.1814 57.5978 36.2961 57.7952C35.211 57.903 34.2249 58.5888 33.7925 59.651L28.0075 73.8685L23.6235 78.5797C23.502 78.7101 23.4263 78.876 23.4076 79.0524L22.4134 88.3888L13.9078 98.9651L15.2086 99.9936L23.8655 89.2289C23.9642 89.1059 24.0255 88.9575 24.0422 88.8013L25.0329 79.4973L29.3331 74.8762C29.4013 74.8029 29.4556 74.7179 29.4933 74.6253L35.3352 60.2681C35.6034 59.6098 36.3446 59.2713 37.0234 59.4964L37.1398 59.5353C37.4945 59.6535 37.7774 59.9035 37.9362 60.2397C38.0936 60.5729 38.1072 60.9448 37.9752 61.2881L32.472 74.2796C32.3222 74.6332 32.4379 75.0423 32.7512 75.2672C33.065 75.4922 33.4932 75.4729 33.7846 75.2211L44.9403 65.6002C44.9456 65.5958 44.9509 65.5909 44.9562 65.5863C45.4992 65.0935 46.3516 65.1245 46.857 65.6548C47.1163 65.927 47.2469 66.2825 47.2248 66.6564C47.2026 67.0301 47.0311 67.3683 46.7368 67.6123C46.7368 67.6123 33.3527 78.7631 33.2826 78.8315L34.4494 80.0069C34.4817 79.9755 37.7274 77.3642 37.7274 77.3642C38.3027 76.902 39.1454 76.9632 39.6464 77.5044C39.9111 77.7905 40.0411 78.1613 40.0123 78.5485C39.9834 78.9354 39.8002 79.283 39.4963 79.5274L36.3184 82.0786L37.365 83.3603L40.8848 80.535C41.3878 80.1307 42.1245 80.1861 42.5611 80.6602C42.9463 81.0782 42.9904 81.6969 42.6685 82.1646L38.5602 88.1337C37.4354 89.7677 35.8621 91.0206 34.0106 91.7569L29.6391 93.4952C29.4482 93.5711 29.2925 93.7146 29.2019 93.8978L26.6227 99.1165L28.1164 99.8422L30.5551 94.9081L34.6299 93.2878C36.7887 92.4293 38.6227 90.9684 39.9341 89.0634L44.0424 83.0943C44.8012 81.9917 44.6971 80.5334 43.7896 79.5481C43.2265 78.9369 42.4523 78.6236 41.6724 78.6186C41.719 77.8021 41.4303 76.9922 40.8718 76.389C40.5577 76.0496 40.1809 75.7997 39.775 75.6354L47.8088 68.8735C48.4446 68.3462 48.8369 67.5733 48.8854 66.7528C48.9083 66.3655 48.8513 65.9805 48.7274 65.6183C49.1483 65.6517 49.5724 65.6737 50.0018 65.6737C50.4737 65.6737 50.9397 65.6492 51.4011 65.6089C51.0322 66.6375 51.2445 67.8261 52.0434 68.6673L62.6452 79.8273L65.1262 85.7471C65.1948 85.911 65.3148 86.0485 65.4688 86.1391L73.6044 90.9421L78.121 99.8498L79.6074 99.1089L74.9817 89.9862C74.9105 89.8458 74.8002 89.7284 74.6639 89.6481L66.5565 84.8618L64.1229 79.0552C64.0843 78.9632 64.0293 78.8789 63.9604 78.8064L53.2545 67.5366C52.7635 67.0198 52.7637 66.21 53.2545 65.6934L53.3385 65.605C53.5952 65.3349 53.9428 65.1851 54.3171 65.1828H54.3254C54.6933 65.1828 55.0365 65.326 55.2938 65.5867L64.8904 75.9793C65.1514 76.2617 65.5743 76.3292 65.9118 76.1409C66.2489 75.9529 66.4107 75.5593 66.3023 75.1913L62.1591 61.1194C62.157 61.1127 62.155 61.1061 62.1528 61.0992C61.9288 60.4042 62.3136 59.6494 63.0111 59.4163C63.3687 59.2967 63.7492 59.3279 64.0825 59.5043C64.4157 59.6806 64.6535 59.9768 64.754 60.3438C64.754 60.3438 69.3659 77.0624 69.3988 77.1534L70.9648 76.597C70.9493 76.5543 69.9156 72.5379 69.9156 72.5379C69.733 71.8266 70.1422 71.0933 70.8472 70.8689C71.2204 70.7501 71.6142 70.7881 71.9567 70.9764C72.2986 71.1639 72.5399 71.4737 72.6369 71.8485L73.6442 75.78L75.2565 75.3741L74.2501 71.4455L74.2489 71.4417L74.1415 71.0223C73.9821 70.3998 74.3407 69.7597 74.9578 69.565C75.5024 69.3933 76.0872 69.6128 76.3808 70.098L80.1289 76.296C81.155 77.9922 81.6441 79.933 81.5436 81.9089L81.3063 86.573C81.2959 86.7765 81.3621 86.9768 81.4921 87.1351L92.0561 100L93.3459 98.9587L82.9837 86.3396L83.2051 81.9919C83.3222 79.6884 82.7518 77.4254 81.5556 75.4478L77.8073 69.2498C77.1151 68.1056 75.7367 67.589 74.4534 67.9934C73.6578 68.2445 73.0466 68.8104 72.7156 69.5108C71.9873 69.1268 71.1246 69.0482 70.3383 69.2985C69.896 69.4394 69.5093 69.6742 69.1889 69.9709L66.3578 59.9065C66.1409 59.1133 65.5971 58.4364 64.8661 58.0495C64.5186 57.8655 64.1397 57.7552 63.7537 57.7157C63.8584 57.5329 63.9593 57.3479 64.0568 57.1606C64.6224 57.825 65.4637 58.2287 66.3641 58.2286C66.5478 58.2286 66.7342 58.2119 66.9208 58.1773L82.1187 55.352L88.4838 56.4764C88.6597 56.5072 88.8414 56.4813 89.0016 56.4022L97.4707 52.2036L99.8195 52.4474L99.9925 50.8069L97.4023 50.5382C97.2447 50.5219 97.0855 50.5504 96.9437 50.6207ZM76.258 50.3795L65.7642 52.1784C65.7571 52.1796 65.75 52.181 65.7429 52.1824C65.7115 52.1887 65.6815 52.1983 65.6505 52.2055C65.7534 51.4844 65.8101 50.7488 65.8101 50C65.8101 49.0651 65.7224 48.1506 65.5633 47.2602L76.258 50.3795ZM34.3699 52.336L23.7973 49.0996L34.3144 47.4399L34.3357 47.4362C34.3615 47.4315 34.3862 47.4237 34.4118 47.4183C34.2706 48.2588 34.1936 49.1204 34.1936 50C34.1936 50.7938 34.2545 51.5736 34.3699 52.336ZM64.6843 28.4033L60.4641 38.0979C60.4613 38.1045 60.4584 38.1111 60.4558 38.1178C60.4415 38.1532 60.4314 38.1894 60.4185 38.2251C59.1683 37.1365 57.746 36.2379 56.1949 35.5805L64.6843 28.4033ZM36.3671 27.776L43.5585 35.5639C43.5634 35.5691 43.5685 35.5744 43.5735 35.5796C43.5982 35.605 43.6253 35.627 43.6507 35.6514C42.1152 36.3222 40.7066 37.2268 39.4723 38.322L36.3671 27.776ZM36.2383 42.3043C36.198 42.375 36.1551 42.4439 36.1158 42.5152C36.0352 42.415 35.9506 42.3185 35.8584 42.2298C35.9835 42.2624 36.1103 42.2879 36.2383 42.3043ZM35.3896 71.651L39.5133 61.9158C39.5162 61.9092 39.519 61.9025 39.5217 61.8959C39.5393 61.8509 39.552 61.8051 39.5675 61.7597C40.8159 62.85 42.2368 63.75 43.7865 64.4095L35.3896 71.651ZM63.7039 72.252L56.5126 64.4641C56.5077 64.4589 56.5028 64.4536 56.4977 64.4484C56.4595 64.4091 56.4182 64.3741 56.3783 64.3372C57.9232 63.6591 59.34 62.7451 60.5785 61.6374L63.7039 72.252ZM63.5966 53.863C63.485 54.1006 63.4051 54.3486 63.3603 54.6027C61.4345 60.0812 56.1755 64.0244 50.0018 64.0244C42.2023 64.0244 35.857 57.7332 35.857 50C35.857 48.511 36.0944 47.0764 36.53 45.7289C36.6143 45.5463 36.679 45.3577 36.724 45.1646C38.715 39.8069 43.9154 35.9756 50.0018 35.9756C54.3077 35.9756 58.1676 37.8954 60.764 40.9143C60.8666 41.0646 60.9819 41.2038 61.1088 41.3317C63.0086 43.7196 64.1466 46.7296 64.1466 50C64.1466 51.3399 63.9521 52.6348 63.5966 53.863ZM63.902 42.5402C63.8466 42.4392 63.7864 42.3411 63.7288 42.2415C63.9235 42.2183 64.1145 42.1767 64.2996 42.1174C64.1538 42.2458 64.02 42.3869 63.902 42.5402Z" fill="#D9D9D9" stroke="#96172C" stroke-width="20" mask="url(#path-7-inside-3_71_153)"/>
<mask id="path-8-inside-4_71_153" fill="white">
<path d="M14.3976 24.2246C10.553 29.4365 7.97475 35.2812 6.73425 41.5957L8.36686 41.911C9.56045 35.836 12.0412 30.213 15.7402 25.1983L14.3976 24.2246Z"/>
</mask>
<path d="M14.3976 24.2246C10.553 29.4365 7.97475 35.2812 6.73425 41.5957L8.36686 41.911C9.56045 35.836 12.0412 30.213 15.7402 25.1983L14.3976 24.2246Z" fill="#96172C"/>
<path d="M14.3976 24.2246L20.2681 16.1292L12.2382 10.3061L6.3501 18.2884L14.3976 24.2246ZM6.73425 41.5957L-3.0782 39.6681L-5.01205 49.5121L4.83811 51.4143L6.73425 41.5957ZM8.36686 41.911L6.47071 51.7296L16.2576 53.6196L18.1793 43.8389L8.36686 41.911ZM15.7402 25.1983L23.7878 31.1342L29.7721 23.0212L21.6108 17.1028L15.7402 25.1983ZM6.3501 18.2884C1.63394 24.6819 -1.55096 31.8939 -3.0782 39.6681L16.5467 43.5234C17.5005 38.6684 19.4721 34.1911 22.445 30.1608L6.3501 18.2884ZM4.83811 51.4143L6.47071 51.7296L10.263 32.0924L8.6304 31.7772L4.83811 51.4143ZM18.1793 43.8389C19.086 39.2237 20.9601 34.9679 23.7878 31.1342L7.69258 19.2623C3.12239 25.4582 0.0348649 32.4483 -1.44554 39.9831L18.1793 43.8389ZM21.6108 17.1028L20.2681 16.1292L8.52697 32.3201L9.8696 33.2937L21.6108 17.1028Z" fill="#96172C" mask="url(#path-8-inside-4_71_153)"/>
<mask id="path-10-inside-5_71_153" fill="white">
<path d="M19.9099 81.9395L21.0459 80.7344C16.2203 76.2632 12.4676 70.6696 10.1933 64.5583L8.63257 65.1293C10.9962 71.4807 14.896 77.2936 19.9099 81.9395Z"/>
</mask>
<path d="M19.9099 81.9395L21.0459 80.7344C16.2203 76.2632 12.4676 70.6696 10.1933 64.5583L8.63257 65.1293C10.9962 71.4807 14.896 77.2936 19.9099 81.9395Z" fill="#96172C"/>
<path d="M19.9099 81.9395L13.1132 89.2747L20.3862 96.0138L27.187 88.7984L19.9099 81.9395ZM21.0459 80.7344L28.3229 87.5933L35.2405 80.2539L27.8425 73.3991L21.0459 80.7344ZM10.1933 64.5583L19.5653 61.0706L16.0969 51.7504L6.75758 55.1671L10.1933 64.5583ZM8.63257 65.1293L5.19685 55.7381L-4.24663 59.1929L-0.739503 68.6171L8.63257 65.1293ZM27.187 88.7984L28.3229 87.5933L13.7688 73.8755L12.6329 75.0806L27.187 88.7984ZM27.8425 73.3991C24.154 69.9815 21.2889 65.702 19.5653 61.0706L0.821239 68.0461C3.6462 75.6371 8.28665 82.5449 14.2492 88.0696L27.8425 73.3991ZM6.75758 55.1671L5.19685 55.7381L12.0683 74.5206L13.629 73.9496L6.75758 55.1671ZM-0.739503 68.6171C2.17473 76.448 6.96209 83.5751 13.1132 89.2747L26.7067 74.6044C22.8299 71.0121 19.8177 66.5135 18.0046 61.6416L-0.739503 68.6171Z" fill="#96172C" mask="url(#path-10-inside-5_71_153)"/>
<mask id="path-12-inside-6_71_153" fill="white">
<path d="M50.0019 92.0574C47.2579 92.0574 44.5131 91.7959 41.8435 91.2805L41.5255 92.8992C44.2997 93.4351 47.1515 93.7067 50.0019 93.7067C55.8762 93.7067 61.5808 92.5797 66.9568 90.3565L66.3164 88.8345C61.1444 90.973 55.6553 92.0574 50.0019 92.0574Z"/>
</mask>
<path d="M50.0019 92.0574C47.2579 92.0574 44.5131 91.7959 41.8435 91.2805L41.5255 92.8992C44.2997 93.4351 47.1515 93.7067 50.0019 93.7067C55.8762 93.7067 61.5808 92.5797 66.9568 90.3565L66.3164 88.8345C61.1444 90.973 55.6553 92.0574 50.0019 92.0574Z" fill="#96172C"/>
<path d="M41.8435 91.2805L43.7391 81.4618L33.9524 79.5723L32.0311 89.3528L41.8435 91.2805ZM41.5255 92.8992L31.7131 90.9715L29.7794 100.815L39.6287 102.718L41.5255 92.8992ZM66.9568 90.3565L70.7782 99.5976L80.0765 95.7525L76.1741 86.4781L66.9568 90.3565ZM66.3164 88.8345L75.5336 84.9561L71.6792 75.7958L62.4952 79.5933L66.3164 88.8345ZM50.0019 82.0574C47.8888 82.0574 45.7789 81.8556 43.7391 81.4618L39.9479 101.099C43.2474 101.736 46.6271 102.057 50.0019 102.057V82.0574ZM32.0311 89.3528L31.7131 90.9715L51.338 94.8268L51.656 93.2081L32.0311 89.3528ZM39.6287 102.718C43.0338 103.375 46.5209 103.707 50.0019 103.707V83.7067C47.7822 83.7067 45.5657 83.4948 43.4223 83.0807L39.6287 102.718ZM50.0019 103.707C57.1741 103.707 64.1782 102.327 70.7782 99.5976L63.1354 81.1155C58.9834 82.8324 54.5783 83.7067 50.0019 83.7067V103.707ZM76.1741 86.4781L75.5336 84.9561L57.0991 92.7129L57.7396 94.235L76.1741 86.4781ZM62.4952 79.5933C58.5475 81.2257 54.3578 82.0574 50.0019 82.0574V102.057C56.9528 102.057 63.7413 100.72 70.1375 98.0756L62.4952 79.5933Z" fill="#96172C" mask="url(#path-12-inside-6_71_153)"/>
<mask id="path-14-inside-7_71_153" fill="white">
<path d="M85.6062 75.7751C89.4507 70.5634 92.029 64.7189 93.2695 58.4042L91.6369 58.0889C90.4433 64.1639 87.9625 69.7869 84.2635 74.8014L85.6062 75.7751Z"/>
</mask>
<path d="M85.6062 75.7751C89.4507 70.5634 92.029 64.7189 93.2695 58.4042L91.6369 58.0889C90.4433 64.1639 87.9625 69.7869 84.2635 74.8014L85.6062 75.7751Z" fill="#96172C"/>
<path d="M85.6062 75.7751L79.7356 83.8705L87.7654 89.6935L93.6535 81.7114L85.6062 75.7751ZM93.2695 58.4042L103.082 60.3317L105.016 50.4878L95.1656 48.5856L93.2695 58.4042ZM91.6369 58.0889L93.533 48.2703L83.7462 46.3803L81.8245 56.161L91.6369 58.0889ZM84.2635 74.8014L76.2161 68.8653L70.2315 76.9784L78.393 82.8969L84.2635 74.8014ZM93.6535 81.7114C98.3698 75.3181 101.555 68.1062 103.082 60.3317L83.457 56.4766C82.5033 61.3317 80.5317 65.8087 77.5588 69.8387L93.6535 81.7114ZM95.1656 48.5856L93.533 48.2703L89.7407 67.9075L91.3733 68.2227L95.1656 48.5856ZM81.8245 56.161C80.9177 60.7762 79.0437 65.032 76.2161 68.8653L92.311 80.7376C96.8813 74.5417 99.9689 67.5515 101.449 60.0168L81.8245 56.161ZM78.393 82.8969L79.7356 83.8705L91.4768 67.6796L90.1341 66.706L78.393 82.8969Z" fill="#96172C" mask="url(#path-14-inside-7_71_153)"/>
<mask id="path-16-inside-8_71_153" fill="white">
<path d="M80.5203 18.4611L79.3685 19.6509C83.9926 24.0508 87.6034 29.511 89.8105 35.4416L91.3712 34.8706C89.0775 28.707 85.3253 23.0327 80.5203 18.4611Z"/>
</mask>
<path d="M80.5203 18.4611L79.3685 19.6509C83.9926 24.0508 87.6034 29.511 89.8105 35.4416L91.3712 34.8706C89.0775 28.707 85.3253 23.0327 80.5203 18.4611Z" fill="#96172C"/>
<path d="M80.5203 18.4611L87.4132 11.2162L80.2305 4.38239L73.3351 11.506L80.5203 18.4611ZM79.3685 19.6509L72.1833 12.6959L65.1685 19.9429L72.4753 26.8954L79.3685 19.6509ZM89.8105 35.4416L80.4385 38.9294L83.9069 48.2496L93.2462 44.8329L89.8105 35.4416ZM91.3712 34.8706L94.807 44.2619L104.25 40.807L100.743 31.3828L91.3712 34.8706ZM73.3351 11.506L72.1833 12.6959L86.5537 26.606L87.7055 25.4161L73.3351 11.506ZM72.4753 26.8954C76.0084 30.2573 78.7663 34.4361 80.4385 38.9294L99.1826 31.9538C96.4406 24.5859 91.9768 17.8444 86.2618 12.4064L72.4753 26.8954ZM93.2462 44.8329L94.807 44.2619L87.9355 25.4794L86.3748 26.0503L93.2462 44.8329ZM100.743 31.3828C97.9148 23.7824 93.3097 16.8264 87.4132 11.2162L73.6273 25.7059C77.3409 29.239 80.2402 33.6317 81.9992 38.3584L100.743 31.3828Z" fill="#96172C" mask="url(#path-16-inside-8_71_153)"/>
<mask id="path-18-inside-9_71_153" fill="white">
<path d="M50.0019 7.94265C52.7458 7.94265 55.4906 8.20398 58.1602 8.71959L58.4782 7.10088C55.704 6.56493 52.8522 6.29333 50.0019 6.29333C44.755 6.29333 39.621 7.19832 34.7427 8.98293L35.3186 10.5304C40.0119 8.81321 44.9522 7.94265 50.0019 7.94265Z"/>
</mask>
<path d="M50.0019 7.94265C52.7458 7.94265 55.4906 8.20398 58.1602 8.71959L58.4782 7.10088C55.704 6.56493 52.8522 6.29333 50.0019 6.29333C44.755 6.29333 39.621 7.19832 34.7427 8.98293L35.3186 10.5304C40.0119 8.81321 44.9522 7.94265 50.0019 7.94265Z" fill="#96172C"/>
<path d="M58.1602 8.71959L56.2639 18.5381L66.0512 20.4284L67.9727 10.6472L58.1602 8.71959ZM58.4782 7.10088L68.2907 9.02852L70.2244 -0.814801L60.375 -2.71758L58.4782 7.10088ZM34.7427 8.98293L31.3071 -0.40839L21.8633 3.04636L25.3706 12.4707L34.7427 8.98293ZM35.3186 10.5304L25.9465 14.0182L29.4151 23.3386L38.7545 19.9215L35.3186 10.5304ZM50.0019 17.9426C52.1155 17.9426 54.2251 18.1444 56.2639 18.5381L60.0566 -1.09896C56.7561 -1.73641 53.3762 -2.05735 50.0019 -2.05735V17.9426ZM67.9727 10.6472L68.2907 9.02852L48.6658 5.17324L48.3478 6.79195L67.9727 10.6472ZM60.375 -2.71758C56.9699 -3.3754 53.4829 -3.70667 50.0019 -3.70667V16.2933C52.2216 16.2933 54.4381 16.5053 56.5814 16.9193L60.375 -2.71758ZM50.0019 -3.70667C43.5949 -3.70667 37.2973 -2.59973 31.3071 -0.40839L38.1782 18.3742C41.9447 16.9964 45.9151 16.2933 50.0019 16.2933V-3.70667ZM25.3706 12.4707L25.9465 14.0182L44.6906 7.04256L44.1147 5.49512L25.3706 12.4707ZM38.7545 19.9215C42.3352 18.6115 46.1117 17.9426 50.0019 17.9426V-2.05735C43.7927 -2.05735 37.6885 -0.98504 31.8826 1.13919L38.7545 19.9215Z" fill="#96172C" mask="url(#path-18-inside-9_71_153)"/>
</svg>
