<svg width="90" height="90" viewBox="0 0 90 90" fill="none" xmlns="http://www.w3.org/2000/svg">
<path d="M54.7087 19.1172V19.1185C54.7087 24.4706 50.3448 28.8346 44.9916 28.8346C39.6407 28.8346 35.2819 24.4717 35.2819 19.1185C35.2819 13.7656 39.6444 9.40759 44.9916 9.40759C50.3471 9.40759 54.7132 13.7663 54.7087 19.1172ZM78.0264 37.4205C78.0264 35.4429 79.6406 33.8254 81.632 33.8254C83.6105 33.8254 85.2261 35.4405 85.2261 37.4205C85.2261 39.4012 83.6119 41.0147 81.632 41.0147C79.6398 41.0147 78.0264 39.3994 78.0264 37.4205ZM4.7729 37.4205C4.7729 35.4429 6.38713 33.8254 8.3785 33.8254C10.3607 33.8254 11.9757 35.4411 11.9757 37.4205C11.9757 39.4004 10.3613 41.0147 8.3785 41.0147C6.38633 41.0147 4.7729 39.3994 4.7729 37.4205ZM60.3902 30.6465C60.3902 27.2857 63.1145 24.5581 66.4669 24.5581C69.8228 24.5581 72.5552 27.2921 72.5552 30.6465C72.5552 33.9934 69.826 36.7202 66.4669 36.7202C63.1118 36.7202 60.3902 33.9963 60.3902 30.6465ZM88.5 67.6723H82.8609V53.2713C82.8609 50.9973 82.3592 48.8572 81.516 46.9132C81.5546 46.9123 81.5933 46.9119 81.632 46.9119C85.4085 46.9119 88.5 50.0007 88.5 53.7915V67.6723ZM17.4437 30.6465C17.4437 27.2882 20.1738 24.5581 23.532 24.5581C26.8752 24.5581 29.6067 27.29 29.6067 30.6465C29.6067 33.9954 26.8775 36.7202 23.532 36.7202C20.1711 36.7202 17.4437 33.9937 17.4437 30.6465ZM8.3785 46.9119C8.41254 46.9119 8.44655 46.9122 8.48054 46.9129C7.63371 48.8606 7.14121 51.0009 7.14121 53.2713V67.6723H1.5V53.7915C1.5 50.0012 4.59198 46.9119 8.3785 46.9119ZM77.0862 73.5902H66.8512V50.8964C66.8512 47.986 66.2291 45.2522 65.1911 42.7494C65.6155 42.6867 66.0405 42.6519 66.468 42.6519C72.318 42.6519 77.0862 47.4112 77.0862 53.2713V73.5902ZM23.1352 50.8964V73.5902H12.9169V53.2713C12.9169 47.4166 17.6787 42.6519 23.5383 42.6519C23.9624 42.6519 24.3823 42.6861 24.8011 42.748C23.7613 45.2503 23.1352 47.9846 23.1352 50.8964ZM61.0755 50.8964V80.5935H28.9099V50.8964C28.9099 42.0281 36.118 34.8145 44.9906 34.8145C53.8567 34.8145 61.0755 42.0289 61.0755 50.8964Z" stroke="#96172C" stroke-width="3"/>
</svg>
