<svg width="100" height="100" viewBox="0 0 100 100" fill="none" xmlns="http://www.w3.org/2000/svg">
<path d="M98.7421 7.99402C98.1132 7.99402 97.4843 8.46424 97.4843 9.24794V26.4893C97.4843 27.1163 97.9559 27.7432 98.7421 27.7432C99.5283 27.7432 100 27.273 100 26.4893V9.24794C100 8.46424 99.371 7.99402 98.7421 7.99402Z" fill="#96172C"/>
<path d="M98.7421 0.15686C98.1132 0.15686 97.4843 0.62708 97.4843 1.41078V2.97818C97.4843 3.60514 97.9559 4.2321 98.7421 4.2321C99.5283 4.2321 100 3.76188 100 2.97818V1.41078C100 0.62708 99.371 0.15686 98.7421 0.15686Z" fill="#96172C"/>
<path d="M97.1699 87.9309H95.1259V85.8933C95.1259 85.2664 94.6542 84.6394 93.868 84.6394C93.0819 84.6394 92.6102 85.1096 92.6102 85.8933V87.9309H90.5661C89.9372 87.9309 89.3083 88.4012 89.3083 89.1849C89.3083 89.9686 89.78 90.4388 90.5661 90.4388H92.6102V92.4764C92.6102 93.1034 93.0819 93.7303 93.868 93.7303C94.6542 93.7303 95.1259 93.2601 95.1259 92.4764V90.4388H97.1699C97.7989 90.4388 98.4278 89.9686 98.4278 89.1849C98.4278 88.4012 97.7989 87.9309 97.1699 87.9309Z" fill="#96172C"/>
<path d="M7.54717 13.4795C8.1761 13.4795 8.80503 13.0093 8.80503 12.2256C8.80503 11.4419 8.1761 11.1285 7.54717 11.1285H5.66038V9.09083C5.66038 8.46387 5.18868 7.83691 4.40252 7.83691C3.61635 7.83691 3.30189 8.46387 3.30189 9.09083V11.1285H1.25786C0.628931 11.1285 0 11.5987 0 12.3824C0 13.1661 0.471698 13.6363 1.25786 13.6363H3.30189V15.6739C3.30189 16.3009 3.77358 16.9278 4.55975 16.9278C5.34591 16.9278 5.81761 16.4576 5.81761 15.6739V13.4795H7.54717Z" fill="#96172C"/>
<path d="M79.8742 56.5832H79.088C80.3459 54.3888 81.1321 51.7242 81.1321 50.0001C81.1321 45.9249 77.673 42.4766 73.5849 42.4766C69.4968 42.4766 66.0377 45.9249 66.0377 50.0001C66.0377 51.7242 66.8239 54.3888 68.0818 56.5832H67.2956C65.7233 56.5832 64.3082 57.0534 63.0503 57.8371C61.9497 55.1725 59.2767 53.4484 56.2893 53.4484H55.5031C56.761 51.254 57.5472 48.5894 57.5472 46.8653C57.5472 42.7901 54.088 39.3418 50 39.3418C45.9119 39.3418 42.4528 42.7901 42.4528 46.8653C42.4528 48.5894 43.239 51.254 44.4969 53.4484H43.7107C40.7233 53.4484 38.0503 55.3293 36.9497 57.8371C35.6918 57.0534 34.2767 56.5832 32.7044 56.5832H31.9182C33.1761 54.3888 33.9623 51.7242 33.9623 50.0001C33.9623 45.9249 30.5031 42.4766 26.4151 42.4766C22.327 42.4766 18.8679 45.9249 18.8679 50.0001C18.8679 51.7242 19.6541 54.3888 20.9119 56.5832H20.1258C16.0377 56.5832 12.5786 59.8747 12.5786 64.1067V81.3481C12.5786 81.975 13.0503 82.602 13.8365 82.602H18.8679V98.7462C18.8679 99.3731 19.3396 100 20.1258 100H32.8616C33.4906 100 34.1195 99.5299 34.1195 98.7462V67.3982C34.1195 66.7713 33.6478 66.1443 32.8616 66.1443C32.0755 66.1443 31.6038 66.6145 31.6038 67.3982V97.649H27.5157V78.0565C27.5157 77.4296 27.044 76.8026 26.2579 76.8026C25.4717 76.8026 25 77.2728 25 78.0565V97.3355H20.9119V67.0847C20.9119 66.4578 20.4402 65.8308 19.6541 65.8308C18.8679 65.8308 18.3962 66.301 18.3962 67.0847V80.0942H14.6226V63.9499C14.6226 61.1286 16.9811 58.7775 19.8113 58.7775H22.327C23.4277 59.8747 24.6855 60.5017 26.1006 60.5017C27.5157 60.5017 28.7736 59.8747 29.8742 58.7775H32.3899C33.805 58.7775 35.0629 59.4045 36.0063 60.3449C36.0063 60.5017 36.0063 60.6584 36.0063 60.8152V76.4891C36.0063 77.1161 36.478 77.7431 37.2641 77.7431H42.2956V97.022C42.2956 97.649 42.7673 98.276 43.5535 98.276H56.2893C56.9182 98.276 57.5472 97.8057 57.5472 97.022V77.7431H62.5786C63.2075 77.7431 63.8365 77.2728 63.8365 76.4891V60.8152C63.8365 60.6584 63.8365 60.5017 63.8365 60.3449C64.7799 59.4045 66.0377 58.7775 67.4528 58.7775H69.9685C71.0692 59.8747 72.327 60.5017 73.7421 60.5017C75.1572 60.5017 76.4151 59.8747 77.5157 58.7775H80.0314C82.8616 58.7775 85.2201 61.1286 85.2201 63.9499V80.0942H81.4465V67.0847C81.4465 66.4578 80.9748 65.8308 80.1887 65.8308C79.4025 65.8308 78.9308 66.301 78.9308 67.0847V97.3355H74.8428V78.0565C74.8428 77.4296 74.3711 76.8026 73.5849 76.8026C72.7987 76.8026 72.327 77.2728 72.327 78.0565V97.3355H68.239V67.0847C68.239 66.4578 67.7673 65.8308 66.9811 65.8308C66.195 65.8308 65.7233 66.301 65.7233 67.0847V98.4327C65.7233 99.0597 66.195 99.6866 66.9811 99.6866H79.717C80.3459 99.6866 80.9748 99.2164 80.9748 98.4327V82.4452H86.0063C86.6352 82.4452 87.2641 81.975 87.2641 81.1913V63.9499C87.4214 59.8747 83.9623 56.5832 79.8742 56.5832ZM26.4151 44.8277C29.2453 44.8277 31.6038 47.1788 31.6038 50.0001C31.6038 52.0377 30.3459 55.1725 28.7736 56.8967C28.3019 57.3669 27.8302 57.8371 27.2013 58.1506C27.2013 58.1506 27.2013 58.1506 27.044 58.1506C26.8868 58.1506 26.5723 58.3073 26.4151 58.3073C26.2579 58.3073 25.9434 58.3073 25.7862 58.1506C25.7862 58.1506 25.7862 58.1506 25.6289 58.1506C25 57.8371 24.3711 57.3669 24.0566 56.8967C22.4843 55.1725 21.2264 52.0377 21.2264 50.0001C21.2264 47.022 23.5849 44.8277 26.4151 44.8277ZM50 41.6929C52.8302 41.6929 55.1887 44.044 55.1887 46.8653C55.1887 48.9029 53.9308 52.0377 52.3585 53.7619C51.8868 54.2321 51.4151 54.7023 50.7862 55.0158C50.7862 55.0158 50.7862 55.0158 50.6289 55.0158C50.4717 55.0158 50.1572 55.1725 50 55.1725C49.8428 55.1725 49.5283 55.1725 49.3711 55.0158C49.3711 55.0158 49.3711 55.0158 49.2138 55.0158C48.5849 54.7023 47.956 54.2321 47.6415 53.7619C46.0692 52.0377 44.8113 48.9029 44.8113 46.8653C44.8113 43.8873 47.1698 41.6929 50 41.6929ZM61.478 75.392H57.7044V67.0847C57.7044 66.4578 57.2327 65.8308 56.4465 65.8308C55.6604 65.8308 55.1887 66.301 55.1887 67.0847V95.7681H51.1006V74.9217C51.1006 74.2948 50.6289 73.6678 49.8428 73.6678C49.0566 73.6678 48.5849 74.138 48.5849 74.9217V95.7681H44.4969V67.0847C44.4969 66.4578 44.0252 65.8308 43.239 65.8308C42.4528 65.8308 41.9811 66.301 41.9811 67.0847V75.392H38.2075V60.8152C38.2075 57.9938 40.566 55.6427 43.3962 55.6427H45.9119C47.0126 56.7399 48.2704 57.3669 49.6855 57.3669C51.1006 57.3669 52.3585 56.7399 53.4591 55.6427H55.9748C58.805 55.6427 61.1635 57.9938 61.1635 60.8152V75.392H61.478ZM73.5849 44.8277C76.4151 44.8277 78.7736 47.1788 78.7736 50.0001C78.7736 52.0377 77.5157 55.1725 75.9434 56.8967C75.4717 57.3669 75 57.8371 74.3711 58.1506C74.3711 58.1506 74.3711 58.1506 74.2138 58.1506C74.0566 58.1506 73.7421 58.3073 73.5849 58.3073C73.4277 58.3073 73.1132 58.3073 72.956 58.1506C72.956 58.1506 72.956 58.1506 72.7987 58.1506C72.1698 57.8371 71.5409 57.3669 71.2264 56.8967C69.6541 55.1725 68.3962 52.0377 68.3962 50.0001C68.3962 47.022 70.7547 44.8277 73.5849 44.8277Z" fill="#96172C"/>
<path d="M91.3521 57.3668C92.7672 52.9781 93.5534 48.2759 93.5534 43.5737C93.5534 19.5925 74.0565 0 49.8427 0C25.6289 0 6.44647 19.5925 6.44647 43.5737C6.44647 48.2759 7.23264 52.8213 8.64773 57.3668C8.80496 57.837 9.27666 58.1505 9.74836 58.1505C9.90559 58.1505 10.0628 58.1505 10.0628 58.1505C10.6918 57.9937 11.0062 57.21 10.849 56.7398C9.43389 52.5078 8.80496 48.1191 8.80496 43.7304C8.80496 36.8339 10.5345 30.2508 13.5219 24.4514H28.6163C27.5157 28.3699 26.8867 32.7586 26.415 37.3041C26.415 37.931 26.8867 38.558 27.5157 38.558C28.1446 38.558 28.7735 38.0878 28.7735 37.4608C29.088 32.7586 29.8741 28.3699 31.132 24.2947H48.8993V34.1693C48.8993 34.7962 49.371 35.4232 50.1572 35.4232C50.9433 35.4232 51.415 34.953 51.415 34.1693V24.2947H69.1823C70.2829 28.3699 71.0691 32.7586 71.5408 37.4608C71.5408 38.0878 72.1697 38.558 72.6414 38.558C72.6414 38.558 72.6414 38.558 72.7987 38.558C73.4276 38.558 73.8993 37.931 73.8993 37.3041C73.5848 32.7586 72.7987 28.3699 71.698 24.4514H86.7924C89.7798 30.2508 91.5094 36.6771 91.5094 43.7304C91.5094 48.1191 90.7232 52.5078 89.4653 56.7398C89.3081 57.3668 89.6226 57.9937 90.2515 58.1505C90.566 58.3072 91.1949 57.9937 91.3521 57.3668ZM14.937 22.1003C20.5974 12.8527 29.8741 6.11285 40.7232 3.60502C35.849 7.36677 31.9182 13.7931 29.4024 22.1003H14.937ZM31.7609 22.1003C35.3773 10.9718 41.6666 3.44828 48.7421 2.66458V22.1003H31.7609ZM51.2578 22.1003V2.50784C58.3333 3.29154 64.6226 10.815 68.2389 21.9436H51.2578V22.1003ZM70.7546 22.1003C68.2389 13.7931 64.1509 7.36677 59.4339 3.60502C70.283 6.11285 79.5597 12.8527 85.2201 22.1003H70.7546Z" fill="#96172C"/>
</svg>
