<svg width="130" height="130" viewBox="0 0 130 130" fill="none" xmlns="http://www.w3.org/2000/svg">
<path d="M86.3281 48.9531C86.3281 42.0469 80.8438 36.5625 73.9375 36.5625C70.4844 36.5625 67.2344 37.9844 65 40.2187C62.7656 37.9844 59.5156 36.5625 56.0625 36.5625C49.1563 36.5625 43.6719 42.0469 43.6719 48.9531C43.6719 52.4063 45.0938 55.25 47.125 57.6875L65 75.1562L83.2812 57.0781C83.4844 56.875 84.0938 56.2656 84.0938 56.2656C85.5156 54.2344 86.3281 51.5938 86.3281 48.9531Z" stroke="#96172C" stroke-width="2" stroke-miterlimit="10"/>
<path d="M99.7344 110.297V96.2813C99.7344 96.2813 99.7344 96.0781 99.5313 96.0781H70.4844C70.4844 96.0781 70.2812 96.0781 70.2812 96.2813V110.297" stroke="#96172C" stroke-width="2" stroke-miterlimit="10"/>
<path d="M75.3594 96.2813V78.2031C75.5625 77.1875 76.1719 75.5625 76.9844 74.75L87.9531 62.9688C90.5938 59.5156 96.2813 63.1719 93.2344 66.4219L84.5 78.6094H88.7656L99.3281 67.2344C99.3281 67.2344 99.9375 60.3281 100.141 59.3125L95.0625 46.7188C94.25 44.6875 94.0469 42.25 94.8594 40.0156C95.4688 38.3906 96.2813 36.9688 96.8906 36.5625L105.625 58.2969C106.031 59.1094 105.828 70.8906 105.828 70.8906L93.6406 96.2813" stroke="#96172C" stroke-width="2" stroke-miterlimit="10"/>
<path d="M30.2656 110.297V96.2813C30.2656 96.2813 30.2656 96.0781 30.4688 96.0781H59.5156C59.5156 96.0781 59.7188 96.0781 59.7188 96.2813V110.297" stroke="#96172C" stroke-width="2" stroke-miterlimit="10"/>
<path d="M54.6406 96.2813V78.2031C54.4375 77.1875 53.8281 75.5625 53.0156 74.75L42.0469 62.9688C39.4063 59.5156 33.7188 63.1719 36.7656 66.4219L45.5 78.6094H41.2344L30.6719 67.0313C30.6719 67.0313 30.0625 60.125 29.8594 59.1094L34.9375 46.5156C35.75 44.4844 35.9531 42.0469 35.1406 39.8125C34.5312 38.1875 33.7187 36.7656 33.1094 36.3594L24.375 58.0938C23.9688 58.9063 24.1719 70.6875 24.1719 70.6875L36.3594 96.0781" stroke="#96172C" stroke-width="2" stroke-miterlimit="10"/>
<path d="M37.375 31.0781C40.8281 27.625 45.0938 24.7812 49.7656 22.75C54.4375 20.7188 59.5156 19.7031 65 19.7031C70.4844 19.7031 75.5625 20.7188 80.2344 22.75C84.9063 24.7812 89.1719 27.625 92.625 31.0781" stroke="#96172C" stroke-width="2" stroke-miterlimit="10" stroke-dasharray="2 2"/>
</svg>
